<svg width="1872" height="1380" viewBox="0 0 1872 1380" fill="none" xmlns="http://www.w3.org/2000/svg">
<path d="M935.799 0.0999908C1246.14 0.0999908 1556.58 0.1 1866.92 0C1870.68 0 1871.6 0.799991 1871.6 4.59999C1871.5 461.5 1871.5 918.5 1871.6 1375.4C1871.6 1379.1 1870.78 1380 1866.92 1380C1246.14 1379.9 625.459 1379.9 4.67909 1380C0.915554 1380 0 1379.2 0 1375.4C0.101717 918.5 0.101717 461.5 0 4.59999C0 0.899991 0.813837 0 4.67909 0C315.12 0.1 625.459 0.0999908 935.799 0.0999908Z" fill="#FCFCFC"/>
<path d="M873.446 780.4C873.141 790 874.057 799.6 874.464 809.2C874.972 809.9 875.379 810.7 875.583 811.6C875.888 813.6 875.786 815.6 875.786 817.6C875.888 821.4 875.277 825.2 876.6 828.9C877.312 837.1 877.617 845.5 877.82 853.7C878.024 867.4 879.651 881.1 879.143 894.9C879.041 897.2 879.651 899.5 879.855 901.8C879.956 902.8 879.956 903.7 879.956 904.7C879.651 918.3 880.668 932 881.38 945.6C882.296 966.5 882.398 987.5 884.025 1008.4C884.737 1017.3 884.635 1026.4 884.941 1035.3C885.347 1048.6 885.856 1061.9 886.466 1075.2C887.382 1096 887.585 1116.7 889.111 1137.5C889.518 1142.8 889.416 1148.1 889.111 1153.5C889.009 1154.8 888.908 1156.1 888.094 1157.1C888.297 1164.4 888.501 1171.8 888.806 1179.1C886.975 1181 884.432 1180.7 882.194 1180.7C857.07 1180.8 831.946 1180.7 806.822 1180.7C804.685 1180.7 802.448 1180.8 800.414 1179.6C798.379 1177.6 798.989 1174.9 798.888 1172.5C798.786 1152.9 798.888 1133.4 798.888 1113.8C798.888 1111.5 798.989 1109.2 798.176 1106.9C797.26 1101.4 797.565 1095.9 797.667 1090.5C798.176 1062 796.65 1033.6 796.243 1005.2C796.04 988.7 796.447 972.2 795.328 955.8C794.107 938.8 794.819 921.9 794.717 904.9C794.616 900.2 795.327 895.6 794.107 891C793.598 888.5 793.497 886 793.598 883.6C794.31 862.8 792.378 842.1 792.683 821.4C792.785 820.2 792.581 819 792.785 817.7C792.785 815.6 792.683 813.6 792.785 811.5C792.785 810.6 792.785 809.7 792.785 808.8C792.581 799.6 792.581 790.3 792.785 781.1C792.785 780.2 792.785 779.3 792.785 778.4C792.683 771.6 792.785 764.8 792.683 758C792.683 756.7 792.683 755.3 792.479 754C792.174 752 790.954 751.2 789.021 751.2C786.681 751.2 785.868 752.6 785.563 754.6C784.444 762.3 784.545 770.2 784.24 777.9C783.935 779.6 783.325 781.2 783.426 782.9C783.325 786.7 783.732 790.5 783.02 794.3C781.697 799.8 782.715 805.3 782.308 810.8C782.308 811.7 782.104 812.5 781.901 813.4C780.985 815.9 781.494 818.5 781.392 821.1C781.901 833.4 780.477 845.6 779.765 857.8C779.358 865.2 779.154 872.7 778.646 880.1C778.137 887.4 777.832 894.6 777.323 901.9C777.323 902.8 777.323 903.8 777.323 904.7C777.425 913 776.612 921.3 776.205 929.6C775.188 948 774.475 966.4 773.255 984.8C771.831 1006.8 770.915 1028.9 769.593 1051C768.678 1066.6 767.966 1082.2 767.152 1097.8C766.236 1116.4 765.321 1135 764.1 1153.5C764.1 1154.8 764.1 1156 764.1 1157.3C763.693 1163.2 762.981 1169.1 763.083 1175C763.083 1176.6 762.88 1178.3 761.557 1179.5C759.421 1180.8 756.98 1180.6 754.641 1180.6C729.516 1180.6 704.392 1180.6 679.268 1180.6C677.132 1180.6 674.894 1180.7 672.86 1179.7C670.215 1174.4 672.148 1168.9 672.046 1163.5C671.944 1161.4 672.656 1159.3 672.758 1157.2C672.758 1156 672.758 1154.7 672.758 1153.5C672.961 1139.7 674.284 1126 675.098 1112.2C675.911 1098.6 676.725 1085 677.641 1071.4C678.759 1056.7 679.573 1041.9 680.387 1027.1C681.099 1014.2 682.014 1001.2 682.726 988.3C683.54 974 684.557 959.8 685.371 945.5C686.185 931.9 687.202 918.3 687.914 904.7C687.914 903.8 687.914 902.8 687.914 901.9C689.033 885.9 690.355 869.9 690.864 853.8C690.965 852 691.067 850.1 692.186 848.6C697.374 845 703.477 846 709.275 845C713.547 844.3 717.921 843.8 722.396 843.4C725.855 843.1 726.668 842.2 724.837 838.8C715.378 821.9 706.732 804.6 697.78 787.5C696.967 785.9 696.051 784.3 695.95 782.4C696.051 780.8 696.255 779.2 696.153 777.7C696.255 774.4 695.95 771 696.967 767.8C697.17 766.1 697.069 764.3 697.069 762.6C697.374 747.2 698.696 731.9 699.713 716.5C700.12 709.7 700.324 702.9 701.036 696.2C701.239 694.1 700.934 691.9 702.561 690C708.257 688.1 714.157 687.8 720.057 687.9C748.639 688.3 777.12 687.1 805.703 686.5C825.436 686.1 845.271 686.8 865.004 685.3C866.53 685.2 868.055 685.2 869.378 686C871.921 689.3 871.921 693.2 872.022 697C872.022 719.8 874.159 742.5 874.159 765.3C874.159 769.5 875.583 773.5 874.871 777.7C874.464 778.8 874.057 779.6 873.446 780.4Z" fill="#8F3600"/>
<path d="M1499.82 1157.1C1499.62 1164.5 1499.52 1171.9 1499.31 1179.3C1497.58 1180.7 1495.55 1180.6 1493.52 1180.6C1474.49 1180.7 1455.47 1180.6 1436.45 1180.6C1434.72 1180.6 1433.1 1180.6 1431.57 1179.7C1425.98 1166.9 1420.48 1154.1 1414.89 1141.4C1414.38 1140.3 1413.67 1138.7 1412.04 1139.6C1410.21 1140.6 1411.12 1142.1 1411.73 1143.5C1416.31 1153.7 1420.79 1163.8 1425.26 1174C1425.98 1175.7 1426.59 1177.4 1427.2 1179.1C1425.26 1180.8 1422.82 1180.6 1420.48 1180.6C1392.51 1180.6 1364.44 1180.6 1336.46 1180.6C1334.63 1180.6 1332.7 1180.8 1331.07 1179.7C1328.53 1172.1 1325.99 1164.4 1323.55 1156.8C1322.53 1155.9 1321.71 1154.9 1321.31 1153.6C1302.59 1098.7 1284.49 1043.5 1265.87 988.6C1262.01 977.3 1259.67 965.8 1260.18 953.8C1260.48 947.9 1261.4 942.2 1262.72 936.5C1265.36 925.8 1267.91 915.1 1270.55 904.4C1270.75 903.3 1271.26 902.4 1271.36 901.3C1277.98 874.7 1284.28 848 1291 821.5C1291.71 819.8 1291.71 817.8 1292.22 816C1300.05 784.9 1307.27 753.7 1315.2 722.7C1315.71 720.9 1316.12 719.1 1316.42 717.3C1316.93 715.7 1317.24 714 1318.36 712.6C1318.97 711.9 1319.88 711.5 1320.8 711.2C1322.93 710.7 1325.17 710.7 1327.41 710.7C1359.86 710.7 1392.41 710.7 1424.86 710.7C1428.52 710.7 1432.38 710.4 1435.54 712.9C1437.06 715 1436.55 717.4 1436.66 719.7C1436.86 730.8 1437.57 742 1438.18 753.1C1439.1 770.5 1439.61 788 1440.93 805.4C1441.54 812.9 1441.74 820.4 1442.05 827.8C1442.86 852.4 1444.39 877 1445.4 901.5C1446.62 929.1 1448.05 956.6 1449.37 984.2C1450.79 1011.8 1452.22 1039.3 1453.34 1066.9C1453.54 1072.5 1454.46 1073.3 1460.46 1073.4C1471.14 1073.5 1481.82 1073.4 1492.5 1073.4C1495.04 1073.4 1497.58 1073.1 1499.82 1074.8C1500.84 1076.2 1501.04 1077.9 1501.04 1079.5C1501.04 1104 1501.35 1128.6 1500.94 1153.1C1500.94 1154.7 1500.64 1156 1499.82 1157.1Z" fill="#8F3600"/>
<path d="M1499.62 1075.4C1485.58 1075.4 1471.54 1075.1 1457.51 1075.4C1453.34 1075.5 1452.12 1074.2 1451.91 1070.2C1451 1048.1 1449.88 1026 1448.76 1003.9C1446.42 957.1 1444.18 910.2 1441.84 863.4C1440.32 832.8 1438.89 802.3 1437.47 771.7C1436.65 754.4 1435.74 737.2 1434.93 719.9C1434.82 717.8 1435.13 715.6 1435.23 713.5C1436.35 710.5 1439.1 711.2 1441.23 711.2C1449.88 711.3 1458.42 712.3 1467.07 712.2C1471.85 712.1 1474.49 710.7 1475.92 706.1C1479.58 694.7 1483.44 683.3 1487.51 672C1488.94 667.9 1488.43 667.2 1483.75 667.1C1474.39 667 1465.14 667.3 1455.78 667C1450.18 666.8 1444.28 667.2 1438.99 664.6C1437.06 658.5 1438.99 652.4 1439.4 646.4C1440.82 627.9 1442.45 609.3 1444.08 590.8C1445.91 569.3 1447.64 547.8 1449.67 526.2C1450.28 520.1 1450.89 514 1451.2 507.8C1451.3 505 1451.4 502.1 1453.44 499.8C1455.68 498 1458.22 498.5 1460.76 498.6C1463.61 498.7 1465.03 500.3 1465.34 503C1465.54 504.7 1465.54 506.3 1465.54 508C1465.54 525.3 1465.44 542.6 1465.64 559.9C1465.75 565.3 1464.63 569.1 1458.52 570.7C1453.95 571.9 1451.71 575.6 1451.3 580.5C1450.18 598.3 1456.29 598.9 1470.63 598.2C1472.66 598.1 1474.49 597.1 1476.12 595.9C1482.53 591.4 1483.04 573.2 1472.76 570.5C1467.78 569.2 1466.46 565.9 1466.46 561.1C1466.56 542 1466.66 522.8 1466.36 503.7C1466.25 499.7 1467.88 498.4 1471.75 498.4C1479.88 498.4 1488.02 498.6 1496.16 498.3C1496.77 498.2 1497.28 498.1 1497.89 498.1C1499.11 498.2 1499.92 499.1 1500.84 499.7C1521.69 500.8 1541.02 516.2 1544.88 534.9C1545.8 539.2 1545.29 543.5 1545.08 547.8C1544.27 562.1 1543.25 576.3 1542.34 590.6C1540.3 623.3 1538.07 655.9 1536.54 688.6C1536.03 699.2 1533.39 707.8 1523.83 713.5C1519.66 716 1515.18 717.5 1510.4 717.5C1507.04 717.5 1506.33 718.8 1506.74 721.7C1509.59 740.7 1512.43 759.8 1515.28 778.8C1516.81 789.1 1518.44 799.5 1519.86 809.8C1520.88 817.5 1520.67 817.5 1528.81 817.7C1530.23 817.7 1531.86 817.1 1533.08 818.5C1529.52 819.6 1525.96 819.3 1522.5 818.5C1522.5 818.5 1522.5 818.6 1522.4 819.1C1524.74 819.2 1526.98 819.1 1529.22 819.2C1530.23 819.2 1531.35 819.1 1531.05 820.7C1523.52 824.1 1523.62 824.1 1524.74 832.8C1526.78 847.6 1529.93 862.2 1530.34 875.6C1528.91 859.9 1529.73 842.6 1529.62 825.3C1529.62 823.5 1529.73 821.6 1531.45 820.3C1533.29 821.2 1532.57 822.9 1532.57 824.3C1532.37 845.2 1533.18 866.1 1532.17 887C1532.07 889.2 1532.88 891.4 1532.68 892.6C1531.86 889.5 1532.57 885.3 1532.68 881.1C1532.68 861.5 1532.68 841.9 1532.68 822.3C1532.68 821 1532.17 819.6 1533.29 818.5C1534.81 819.9 1534.1 821.6 1534.1 823.2C1534.1 849.5 1533.9 875.8 1534.2 902.1C1534.3 913.9 1537.15 925.5 1538.78 937.1C1542.54 963.6 1546.61 990 1550.48 1016.4C1553.02 1033.8 1555.56 1051.2 1558.31 1068.6C1559.33 1075.3 1559.53 1075.2 1552.51 1075.2C1549.15 1075.2 1545.7 1075.2 1542.34 1075.2C1534.2 1075.2 1534.2 1075.2 1534.2 1083C1534.2 1105.6 1534.2 1128.3 1534.2 1150.9C1534.2 1152.7 1534.81 1154.6 1533.39 1156.2C1531.15 1154.2 1531.86 1151.6 1531.86 1149.2C1531.76 1127.2 1531.86 1105.1 1531.76 1083.1C1531.76 1081.1 1532.57 1078.7 1530.03 1077.3C1522.4 1076.2 1514.67 1077.1 1507.04 1076.8C1504.4 1076.6 1501.75 1077.1 1499.62 1075.4Z" fill="#6DB5DE"/>
<path d="M696.662 782.6C707.342 803 717.921 823.4 728.703 844.1C716.497 845.6 704.799 847.1 693.102 848.6C688.524 851.7 682.93 850.6 677.946 851.6C675.301 852.1 672.656 852.3 669.91 852.7C647.736 855 625.561 857.8 603.489 860.3C601.454 860.5 599.522 860.9 597.487 860.8C590.367 861.8 583.145 862.7 576.025 863.3C575.11 863.3 574.296 863 573.584 862.4C569.413 862.8 565.141 863.3 560.971 863.7C557.818 866.5 553.647 866.1 549.884 866.5C529.54 868.8 509.298 871.2 488.955 873.6C486.412 873.9 483.869 873.8 481.428 873.1C475.732 873.7 470.035 874.3 464.339 874.9C455.185 875.9 456.711 876.6 457.219 868C457.626 860.2 458.135 852.4 458.541 844.7C459.559 843.7 460.779 844 461.898 844.2C476.851 847.6 491.701 844.5 506.145 842C527.099 838.4 539.61 822 539.61 801C539.61 765.7 539.814 730.4 539.508 695.1C539.407 683.5 542.662 672.7 545.205 661.7C557.411 609.6 569.515 557.6 581.721 505.5C582.026 504 582.331 502.6 582.942 501.2C585.078 498.6 587.824 499.4 590.367 500C607.659 504.2 618.746 514.5 622.815 531.8C623.018 532.8 623.324 533.7 623.425 534.7C623.629 535.5 623.629 536.3 623.629 537.2C623.73 540.6 623.73 543.9 623.73 547.3C623.527 549.8 623.629 552.2 624.442 554.6C624.341 566.2 625.561 577.8 625.765 589.5C626.172 608.3 627.799 627 627.799 645.8C627.799 648.4 628.816 650.7 630.037 652.9C649.465 689.3 668.283 726 687.609 762.4C691.067 768.8 695.645 775 696.662 782.6Z" fill="#202B6D"/>
<path d="M438.503 700.5C436.469 691.4 433.112 682.7 430.162 673.9C427.416 665.7 426.704 657.5 428.229 648.9C435.044 611.7 441.758 574.4 448.064 537.1C449.488 528.5 450.913 520.1 456.812 513.2C463.627 505.3 472.375 501.3 482.75 500.5C483.971 502.2 482.852 503.7 482.343 505.2C481.123 509 479.8 512.8 478.58 516.6C475.935 524.4 477.563 531.5 482.852 537.6C491.498 547.6 501.975 554.4 516.012 554.2C524.251 554.1 527.506 550.2 525.472 542.3C521.301 525.9 528.015 512.7 538.186 500.6C538.593 500.1 539.305 499.8 539.916 499.6C546.324 498.6 552.834 499.3 559.344 499.1C566.159 499.3 573.076 498.3 579.891 499.8C582.332 501.7 580.908 504.1 580.399 506.2C576.025 525.7 571.346 545.2 566.769 564.6C558.123 601.4 549.477 638.3 540.933 675.1C538.491 685.5 538.593 685.4 528.116 687C521.708 687.9 515.402 688.6 508.993 689.6C502.178 690.6 501.975 690.9 503.907 697.6C507.366 710.1 511.028 722.6 514.181 735.2C514.689 737.2 515.707 739.3 514.181 741.4C505.23 745.8 495.567 748.4 486.412 752.2C477.868 755.7 468.713 757.8 460.677 762.7C458.236 762.4 457.219 760.5 456.71 758.6C450.607 739.3 442.877 720.4 438.503 700.5Z" fill="#202B6D"/>
<path d="M481.225 873C496.991 871.1 512.757 869.2 528.523 867.3C539.305 866 549.985 864.8 560.767 863.6C560.564 865.6 560.258 867.6 560.258 869.5C560.258 905.1 559.852 940.8 560.462 976.4C560.97 1004.2 554.156 1029.6 539.813 1053.4C528.726 1071.9 518.046 1090.6 507.162 1109.2C505.637 1110 504.213 1109.3 502.788 1108.7C482.852 1100 463.119 1091.1 443.182 1082.4C440.945 1081.4 438.3 1080.8 437.181 1078.2C445.624 1063 455.389 1048.7 464.441 1033.9C469.019 1026.4 473.901 1018.9 478.58 1011.4C480.106 1009 481.021 1006.5 481.123 1003.5C482.038 962 481.733 920.4 481.835 878.8C481.937 876.9 482.343 874.9 481.225 873Z" fill="#FD9993"/>
<path d="M437.282 1078.2C460.576 1088.6 483.869 1098.9 507.264 1109.3C496.278 1128.8 485.496 1148.3 474.409 1167.7C472.171 1171.7 472.171 1173.6 476.342 1176.6C502.788 1195.2 517.334 1221 521.606 1253C519.877 1253 518.453 1253 516.927 1253C481.733 1253 446.437 1252.9 411.243 1253.1C407.988 1253.1 405.954 1252.1 404.021 1249.7C390.798 1233.3 377.473 1216.9 364.148 1200.6C362.724 1198.9 361.605 1197.6 363.232 1195C387.746 1156.4 412.158 1117.7 436.57 1079C436.672 1078.7 436.977 1078.5 437.282 1078.2Z" fill="#8F3600"/>
<path d="M743.452 1252.8C729.211 1252.9 715.073 1253 700.832 1253C664.316 1253 627.799 1253 591.283 1253C584.366 1253 584.671 1253 585.18 1246.5C587.519 1216.7 590.978 1187 591.486 1157C590.672 1155.9 590.469 1154.7 590.469 1153.4C589.554 1146.6 590.978 1139.8 591.486 1133C592.3 1121.6 591.893 1110.1 593.419 1098.7C593.622 1097.4 593.724 1096.1 594.538 1094.9C596.267 1093.4 598.403 1092.9 600.641 1092.7C621.188 1090.6 641.531 1087.3 662.078 1085.2C669.402 1084.5 670.521 1085.3 670.521 1092.5C670.622 1113.1 670.521 1133.8 670.521 1154.4C670.622 1155.3 670.521 1156.2 670.521 1157.1C670.622 1163.1 670.419 1169 670.622 1175C670.724 1176.7 670.012 1178.7 671.843 1180.1C690.355 1193.5 709.275 1206.4 727.991 1219.6C737.756 1226.4 742.536 1235.9 744.469 1247.2C744.571 1249 744.774 1251.1 743.452 1252.8Z" fill="#8F3600"/>
<path d="M1319.58 712.7C1319.27 713 1318.97 713.4 1318.66 713.7C1318.05 714.1 1317.44 714.4 1316.73 714.6C1315.41 714.8 1313.98 714.8 1312.76 715.2C1312.15 715.4 1311.54 715.5 1310.83 715.6C1310.02 715.8 1309.1 715.6 1308.29 715.8C1304.52 715.2 1300.96 716.7 1297.4 717.4C1288.25 719.1 1283.67 716.2 1281.84 707.2C1279.5 696 1277.06 684.9 1274.72 673.7C1272.89 671.8 1272.58 669.3 1272.08 666.8C1266.48 639.2 1260.79 611.5 1255.5 583.8C1254.89 580.9 1254.07 578 1253.67 575C1252.44 567.9 1255.7 562.6 1263.02 560.7C1273.6 557.9 1284.49 556.2 1295.27 554.3C1296.9 554.3 1298.32 553.7 1299.84 553.4C1301.88 553 1303.81 552.4 1305.85 552.2C1307.07 551.9 1308.29 551.5 1309.61 551.3C1314.09 550.5 1318.46 549.5 1322.93 548.4C1332.29 547 1341.45 544.8 1350.7 543.1C1361.49 541.1 1366.57 544.4 1368.81 555C1370.84 564.6 1372.78 574.2 1374.71 583.8C1375.12 585.8 1375.62 587.7 1376.34 589.5C1379.69 610.8 1384.78 631.7 1388.75 652.9C1389.25 655.4 1390.47 658 1388.95 660.6C1386.81 662 1384.68 661.1 1382.64 660.4C1379.08 659.3 1375.73 657.7 1372.17 656.7C1363.82 654.2 1355.59 654.2 1347.35 657.3C1344.91 658.2 1342.46 659.4 1340.63 659.5C1339.11 660 1340.02 660.9 1339.72 660.3C1339.62 660.2 1339.72 660.1 1339.92 660C1347.35 658 1354.87 658.9 1362.4 659.4C1363.42 659.5 1364.84 660 1364.03 661.7C1362.1 663.1 1359.86 662.8 1357.62 662.8C1349.89 662.7 1342.06 663.3 1334.33 662.3C1332.7 662.1 1330.97 662.1 1329.55 663.4C1324.56 665.9 1318.97 666.4 1313.58 667.3C1306.35 668.5 1300.66 671.5 1297.3 678.2C1295.37 679.9 1296.39 681.8 1297.1 683.7C1297.61 686.2 1297.4 688.8 1297.1 691.3C1297.51 694.1 1299.74 692.9 1301.07 692.9C1308.69 693 1316.22 692.9 1323.85 693C1325.99 693 1328.22 692.8 1330.26 693.9C1330.66 697.5 1327.72 696.6 1326.09 696.7C1318.66 697 1311.24 696.8 1303.81 696.8C1302.29 696.8 1300.05 696.1 1299.34 698C1298.62 699.7 1300.05 701.1 1301.07 702.4C1304.22 706.5 1308.19 709.4 1313.37 710.4C1315.61 711 1317.95 710.7 1319.58 712.7Z" fill="#202B6D"/>
<path d="M513.367 741.4C513.977 735.3 511.129 729.8 509.705 724.2C507.162 714.2 504.416 704.3 501.364 694.5C500.042 690.2 501.771 689.1 505.535 688.6C515.096 687.4 524.556 685.9 534.117 684.8C536.864 684.5 537.576 683.3 538.084 680.9C551.816 621.8 565.751 562.6 579.585 503.5C579.788 502.5 580.093 501.6 580.399 500.6C581.518 498.5 582.738 498.5 583.857 500.6C582.331 512.1 578.975 523.3 576.33 534.6C564.734 584.4 553.037 634.1 541.339 683.8C540.932 685.7 540.932 687.8 540.932 689.7C540.932 726.8 540.932 763.9 540.932 801C540.932 825.4 524.251 842.7 499.432 844.4C491.192 845 483.055 846.3 474.816 847C469.222 847.5 463.729 846.1 458.44 844.5C443.182 838.7 433.926 828 430.772 812.2C429.755 807.1 431.078 801.9 431.383 796.8C433.621 764.6 436.163 732.5 438.503 700.4C445.013 717.1 449.794 734.4 455.591 751.3C456.812 755 457.321 759.1 460.474 762C462.915 763.5 463.118 766.1 463.83 768.4C467.797 781.1 471.459 794 475.935 806.5C478.58 813.8 483.564 818.6 491.294 820.4C492.922 820.8 494.854 821.5 496.075 820.1C497.296 818.8 495.77 817.3 495.363 815.9C492.82 808.1 489.768 800.5 487.022 792.8C486.615 791.7 486.208 790.6 486.208 789.4C486.208 788 486.615 786.7 488.039 786.1C489.565 785.5 490.582 786.5 491.498 787.6C492.413 788.6 492.718 789.9 493.227 791.2C495.973 798.4 498.618 805.6 501.263 812.8C501.669 813.9 501.974 815 502.483 816.1C503.5 818.2 505.331 818.2 507.264 817.6C509.4 816.9 508.79 815.3 508.281 813.9C505.84 806.8 503.195 799.8 500.551 792.8C499.533 790.2 498.313 787.5 498.414 784.6C498.516 783.4 498.821 782.2 500.144 781.8C501.669 781.3 502.788 782 503.602 783.2C504.619 784.6 505.026 786.2 505.636 787.8C508.179 795.2 510.926 802.5 513.774 809.9C514.181 810.9 514.384 812.4 515.808 812.5C517.232 812.6 517.741 811.3 518.249 810.3C519.266 808.4 520.385 806.3 520.182 804.2C519.368 796.4 519.368 788.5 516.215 781.2C512.248 772 509.197 762.5 505.636 753.1C505.535 752.8 505.433 752.5 505.331 752.1C504.924 749.9 503.399 747.1 506.45 746C509.502 744.9 510.519 747.9 511.231 750C513.57 756.4 516.215 762.7 517.639 767.9C519.063 760.2 517.232 751.5 513.469 743.2C512.96 742.7 513.062 742 513.367 741.4Z" fill="black"/>
<path d="M1331.07 1179.8C1333.21 1179.6 1335.45 1179.3 1337.58 1179.3C1367.49 1179.2 1397.29 1179.2 1427.19 1179.2C1426.18 1189.8 1422.82 1199.9 1420.68 1210.3C1417.94 1223.1 1414.89 1235.9 1412.04 1248.7C1411.33 1251.7 1410.51 1253.3 1406.65 1253.2C1361.28 1253 1316.02 1253 1270.65 1253.2C1266.79 1253.2 1265.97 1252.4 1266.48 1248.6C1267.8 1239 1271.77 1230.6 1278.99 1224.3C1296.18 1209.2 1313.68 1194.6 1331.07 1179.8Z" fill="black"/>
<path d="M800.21 1179.7C802.142 1178.8 804.177 1179.2 806.211 1179.2C833.675 1179.1 861.138 1179.1 888.602 1179C897.757 1182.5 905.69 1188.2 914.235 1192.9C930.814 1202.2 947.293 1211.6 963.567 1221.3C974.553 1227.8 979.13 1238.3 980.452 1250.4C980.656 1252.4 979.944 1253 977.91 1253C973.332 1252.9 968.755 1253 964.178 1253C930.306 1253 896.434 1252.9 862.562 1253.1C859.002 1253.1 857.985 1252.4 857.477 1248.7C855.951 1236.9 850.356 1227.5 839.473 1221.4C827.165 1214.5 815.061 1207.2 802.956 1200C801.329 1199.1 799.803 1198.1 797.871 1198.1C796.04 1192.2 797.362 1186.5 798.786 1180.8C799.295 1180.3 799.701 1179.9 800.21 1179.7Z" fill="black"/>
<path d="M1100.17 449.6C1091.32 443 1083.9 435.3 1079.63 425C1070.27 402.6 1077.08 377.4 1096.51 362.5C1097.73 361.6 1098.85 360.7 1100.07 359.7C1100.78 358.2 1102 357.3 1103.43 356.6C1125.09 344.8 1154.29 349.4 1171.27 368.6C1172.29 369.7 1173.1 371 1174.02 372.2C1176.66 375.6 1178.9 379.3 1180.43 383.4C1181.14 385 1181.65 386.6 1182.36 388.3C1183.58 392.4 1184.6 396.5 1184.7 400.7C1184.8 401.8 1184.7 402.9 1184.7 403.9C1185.11 411.4 1183.89 418.5 1180.83 425.4C1180.33 426.6 1179.72 427.7 1179.11 428.8C1175.14 435.9 1170.46 442.5 1163.64 447.3C1162.53 448.2 1161.2 448.9 1160.08 449.8C1154.08 454.3 1147.17 456.4 1139.94 458.1C1138.62 458.2 1137.4 458.7 1136.08 458.9C1124.18 459.9 1112.89 457.9 1102.51 452C1101.39 451.4 1100.89 450.5 1100.17 449.6Z" fill="#459257"/>
<path d="M539 500.5C536.457 504.4 534.015 508.4 531.472 512.3C525.166 521.6 524.251 531.7 526.794 542.4C528.93 551.1 525.166 555.9 516.012 555.8C499.737 555.6 487.734 547.7 479.088 534.8C475.121 528.9 475.121 522.3 477.461 515.6C479.19 510.6 481.021 505.6 482.852 500.6C488.039 487.1 492.922 473.5 494.346 459C495.159 453.6 495.261 448.2 495.871 442.8C496.787 431.4 497.092 419.9 499.737 408.7C502.992 394.6 511.129 385.2 526.183 382.6C527.912 382.4 529.438 381.7 531.066 381.4C536.152 380.2 541.237 379.2 546.425 379.4C553.952 380 561.479 378 569.006 378.4C573.38 378.6 577.652 379 581.823 380.3C589.553 382.2 596.47 385.5 602.064 391.1C604.099 393.1 605.523 395.6 606.235 398.5C606.438 399.8 606.947 401.1 607.15 402.4C607.659 407.1 607.76 411.7 603.387 415C601.861 416.1 600.335 417 598.301 416.7C595.758 416.1 595.656 413.9 595.249 412C594.436 408.6 594.13 405.1 593.113 401.7C592.096 398.1 590.469 394.8 588.027 392C582.026 385 577.754 384.8 570.329 390.2C555.986 400.6 548.561 414.2 549.171 432C549.578 443.3 542.661 450.4 532.795 455.1C527.709 457.5 527.811 457.5 530.964 462C537.372 471 542.763 480.3 542.051 491.8C542.051 495 541.644 498.1 539 500.5Z" fill="black"/>
<path d="M1098.14 494.1C1098.85 493.6 1099.56 493.1 1100.28 492.7C1100.78 491.7 1101.19 490.7 1102 489.9C1103.73 488.4 1104.95 486.3 1107.6 486.2C1115.63 489.4 1122.35 494.9 1129.98 498.9C1132.32 500.1 1134.45 501.7 1138.01 503.2C1135.67 500.2 1133.33 499.2 1131.3 498C1125.2 494.4 1119.09 490.9 1113.09 487.1C1111.67 486.2 1109.33 485.7 1110.45 483.1C1117.36 477.7 1124.99 477.7 1133.03 479.9C1134.45 480.5 1135.67 481.4 1137.1 482.1C1147.57 488.6 1158.05 495.1 1169.24 501.7C1168.43 494.7 1162.83 488.3 1169.04 482C1172.29 479.5 1175.65 478.7 1179.41 480.8C1180.02 481.2 1180.63 481.7 1181.14 482.3C1186.23 488 1188.06 495.3 1190.19 502.2C1194.36 515.2 1201.89 526 1210.64 536.3C1214.81 541.3 1218.88 546.4 1222.74 551.7C1223.35 552.7 1224.07 553.6 1224.98 554.4C1229.76 560.4 1234.44 566.5 1239.22 572.5C1240.44 574 1241.87 575.6 1241.87 577.7C1241.15 579.6 1239.53 581 1238 582.2C1227.73 590.8 1217.66 599.5 1207.49 608.1C1206.27 609.2 1204.84 610.2 1203.01 609.8C1188.97 592.9 1174.94 576 1160.8 559.2C1158.97 557 1156.32 555.8 1153.78 554.5C1152.46 553.7 1150.73 553.8 1149.41 553C1133.54 542.8 1118.38 531.6 1102.31 521.7C1101.5 521.1 1100.99 520.3 1100.48 519.6C1099.36 518.8 1098.34 517.9 1097.22 517.3C1087.56 512.2 1087.05 504 1096.21 497.6C1098.85 496.9 1100.68 498.7 1102.61 499.9C1110.14 504.2 1117.47 508.9 1126.01 513.6C1124.99 511.2 1123.57 510.7 1122.45 510C1115.74 506.1 1109.33 501.9 1102.61 498C1100.68 497 1098.44 496.4 1098.14 494.1Z" fill="#FD9993"/>
<path d="M895.722 619.3C905.08 626.9 909.963 636.1 907.216 648.5C906.504 651.7 904.775 653.3 901.927 654.4C896.434 656.5 891.145 658.9 885.754 661.2C885.449 662.3 884.635 662.8 883.72 663.3C882.397 663.9 880.871 664.3 879.549 664.9C876.091 666.7 872.836 666.6 869.988 663.8C866.936 661.5 864.291 658.8 861.342 656.5C847.508 644.4 832.555 633.5 819.942 620.1C818.315 618.4 816.28 617.1 815.772 614.6C815.67 612.1 817.705 611.3 819.434 610.3C824.723 607 830.216 604.1 835.607 600.9C840.388 598 840.591 597.4 836.624 593.6C827.063 584.7 818.62 574.7 809.262 565.6C804.888 561.4 804.786 560.2 808.245 555.4C811.907 550.2 815.874 545.2 819.332 540C823.502 533.8 829.402 529.9 836.115 526.7C840.184 525 844.355 523.5 848.932 523.6C849.949 523.8 850.966 524.1 851.373 525.2C850.458 528.9 846.898 529.9 844.253 531.9C840.591 534.7 836.421 536.9 833.166 540.4C837.133 539 840.286 536.4 843.541 534C849.542 529.4 855.747 525.2 861.748 520.6C868.157 515.7 876.294 512.9 884.33 510.9C887.483 510.1 890.738 511.2 893.586 512.8C896.943 514.6 897.146 516.5 893.993 518.8C887.381 523.8 880.566 528.4 873.853 533.1C872.327 534.2 870.394 534.9 869.682 537C878.023 532 885.754 526.2 893.789 520.8C898.469 517.7 899.282 517.7 902.537 522C902.436 520.8 902.029 519.3 904.368 520C905.487 522 905.487 524.2 905.385 526.4C897.553 532.1 889.314 537.3 881.482 543C879.854 544.1 877.921 544.9 876.497 548C885.245 542.4 892.569 536.8 900.198 531.6C902.029 530.3 903.554 528.2 906.301 528.6C908.335 530.1 908.64 532.4 909.149 534.7C909.251 535.5 909.251 536.3 909.251 537C909.556 543 907.928 548.4 903.656 552.8C902.944 553.5 901.825 553.7 901.012 554.1C898.367 557.4 894.807 559.7 891.348 562C878.023 570.8 864.597 579.5 851.272 588.3C845.067 592.3 845.168 592.3 851.984 595.7C865.512 602.5 878.939 609.6 892.366 616.6C893.586 617.2 895.01 617.9 895.722 619.3Z" fill="#FD9993"/>
<path d="M743.451 1252.8C743.045 1238.4 737.45 1227.1 725.041 1218.8C708.156 1207.5 691.677 1195.6 675.098 1183.9C673.877 1183 672.86 1181.9 671.741 1180.9C671.537 1180.1 671.639 1179.4 672.555 1179C702.154 1179 731.754 1179 761.354 1179C762.879 1177.7 764.507 1178.2 766.033 1179.1C776.001 1184.8 785.868 1190.7 795.734 1196.6C796.344 1197 796.65 1197.5 796.853 1198.2C797.972 1200.9 800.006 1202.6 802.549 1204.1C814.959 1211.2 827.165 1218.5 839.473 1225.8C848.627 1231.2 852.594 1239.6 854.12 1249.6C854.425 1251.9 854.222 1253.1 851.17 1253.1C815.162 1252.9 779.256 1252.9 743.451 1252.8Z" fill="black"/>
<path d="M1431.67 1179.8C1433.2 1179.6 1434.62 1179.3 1436.15 1179.3C1457.2 1179.3 1478.26 1179.3 1499.31 1179.3C1509.38 1203.7 1519.35 1228.1 1529.62 1252.8C1491.17 1252.8 1453.23 1252.8 1414.89 1252.8C1420.58 1228.3 1426.08 1204 1431.67 1179.8Z" fill="black"/>
<path d="M900.707 553.9C901.419 553.4 902.029 552.9 902.741 552.3C905.386 551.1 908.336 551 911.184 551C925.729 551 940.275 551 954.82 551C961.839 551 962.144 550.7 962.144 544.1C962.144 462.5 962.144 381 962.144 299.4C962.144 299.1 962.144 298.7 962.144 298.4C961.839 296.6 962.856 293.7 960.211 293.4C957.77 293.2 958.381 296.1 958.076 297.7C957.465 300.7 955.736 302 952.786 302.1C946.886 302.4 940.987 302.3 934.986 302.1C931.832 302 929.798 300.4 929.696 297.2C929.595 293.2 927.357 292.1 923.797 292.3C923.085 292.3 922.474 292.3 921.762 292.3C884.025 292.3 846.288 292.3 808.449 292.3C803.974 292.3 800.312 292.4 800.21 298.2C800.21 301 797.769 302 795.226 302.1C789.326 302.4 783.427 302.4 777.426 302.1C773.865 302 771.933 300 771.119 296.6C770.814 295.3 771.017 293 768.881 293.2C766.643 293.4 767.152 295.7 767.05 297.3C766.847 301.6 767.05 306 766.949 310.3C766.949 313.7 768.474 315.1 771.933 315C777.527 315 783.122 315 788.716 315C791.056 315 793.497 314.8 795.735 315.7C796.345 316 796.752 316.4 797.057 317C796.243 318.8 794.412 319 792.785 319C782.817 319.1 772.848 319.6 762.982 318.6C761.965 318.5 760.947 318.3 760.134 317.6C761.049 310 760.642 302.3 760.744 294.7C760.846 288.5 761.354 287.6 767.457 286C769.898 285.4 770.611 284 770.916 281.8C772.035 274.3 772.035 274.2 779.256 273C782.41 272.5 783.02 270.7 783.122 268.2C783.223 261.9 783.122 255.5 783.122 249.2C783.122 231.7 783.122 214.2 783.122 196.8C783.122 189.7 782.816 189.3 775.798 189.3C745.283 189.3 714.869 189.3 684.354 189.3C678.149 189.3 677.641 189.8 677.641 195.8C677.539 219.4 677.641 243.1 677.539 266.7C677.539 270.6 678.353 273.1 683.032 273.1C687.609 273.1 689.745 275.8 689.745 280.1C689.745 283.5 690.661 285.9 694.729 286.2C697.577 286.4 698.595 288.5 698.9 291.1C699.103 293.3 699.103 295.4 699.103 297.6C699.103 339.7 699.103 381.8 699.103 424C699.103 425.5 699.205 427 699.103 428.5C698.9 432.3 700.629 433.9 704.494 433.9C714.361 433.8 724.126 433.9 733.992 433.9C736.027 433.9 738.061 433.8 739.993 434.6C740.807 435.1 741.824 435.6 740.909 436.8C738.976 438.2 736.739 438 734.603 438C718.633 438 702.663 438 686.694 438C684.558 438 682.32 438.1 680.387 436.7C679.879 434 682.218 434.4 683.642 434.1C685.575 433.7 687.711 433.9 689.745 433.8C692.492 433.7 693.712 432.4 693.814 429.8C693.814 428.3 693.916 426.8 693.916 425.3C693.916 383.8 693.916 342.4 693.916 300.9C693.916 300.1 694.017 299.2 693.916 298.4C693.61 296.5 694.628 293.6 692.186 293.2C689.745 292.8 690.254 295.8 689.745 297.4C688.931 300.2 687.101 301.7 684.354 301.9C678.048 302.3 671.843 302.3 665.536 301.9C662.892 301.8 660.756 300.5 660.756 297.7C660.654 292.5 657.399 292.1 653.229 292.1C620.679 292.2 588.13 292.1 555.682 292.1C549.782 292.1 543.781 292.1 537.881 292.1C534.728 292.1 532.694 292.9 532.388 296.4C531.982 300.5 529.133 301.9 525.37 302C520.081 302.1 514.893 302 509.604 302C505.535 302 503.196 300.5 502.89 296.2C502.789 294.6 502.789 292.5 500.348 292.7C498.008 292.9 498.313 295 498.11 296.6C497.906 298.3 498.008 299.9 498.008 301.6C497.906 340.4 498.11 379.2 497.906 418C497.805 426.1 496.482 434.2 497.194 442.4C496.889 447.9 495.872 453.3 494.448 458.6C494.346 457.3 494.143 456 494.143 454.7C494.143 401.2 494.245 347.8 494.041 294.3C494.041 289.3 494.957 286.7 500.551 287.7C503.603 288.2 505.026 287 504.518 283.9C504.416 283.1 504.518 282.2 504.518 281.4C504.518 274.8 504.518 274.6 511.435 274.8C515.198 274.9 516.724 274.1 516.622 269.9C516.419 244.1 516.419 218.3 516.622 192.5C516.622 188.8 515.707 187.6 511.842 187.7C498.415 187.9 485.09 188 471.663 187.7C467.493 187.6 466.577 189 466.679 192.8C466.883 198.9 462.305 202.1 457.219 200C454.778 199 453.456 197.2 453.456 194.6C453.456 188.9 453.354 183.3 453.456 177.6C453.558 173.5 455.897 171.6 459.966 171.6C464.034 171.6 466.272 173.5 466.679 177.5C466.984 180.1 465.459 183.5 467.493 185.1C469.731 186.9 473.392 185.7 476.342 185.7C655.06 185.7 833.777 185.7 1012.49 185.8C1017.58 185.8 1019.61 184.8 1019.21 179.4C1018.8 173.7 1021.14 171.6 1025.92 171.6C1030.6 171.6 1032.53 173.8 1032.63 179.6C1032.74 184.3 1032.74 188.9 1032.63 193.6C1032.43 198.1 1029.79 200.7 1025.72 200.6C1021.45 200.4 1018.9 197.9 1019.21 193.9C1019.72 188.3 1017.07 187.8 1012.49 187.9C991.642 188.1 970.79 188.1 949.938 187.9C946.073 187.9 945.056 189 945.157 192.7C945.361 218.5 945.361 244.3 945.157 270.1C945.157 274.2 946.581 275.5 950.345 274.9C955.126 274.2 957.872 275.5 956.855 280.9C955.939 285.9 957.16 289 963.263 287.9C965.501 287.5 966.823 288.6 966.721 291C966.62 292.2 966.721 293.3 966.721 294.5C966.721 379.1 966.721 463.7 966.823 548.3C966.823 553.2 965.806 554.8 960.517 554.7C940.682 554.4 920.847 554.6 901.012 554.6C900.605 554.5 900.503 554.4 900.503 554.2C900.503 554 900.605 553.9 900.707 553.9Z" fill="#5982AF"/>
<path d="M1202.81 609.8C1216.13 599.5 1228.64 588.3 1241.46 577.4C1245.02 571.9 1246.34 571.8 1250.71 576.5C1252.85 578.8 1254.89 581.2 1256.72 583.7C1260.38 601.8 1264.14 620 1267.8 638.1C1270.14 649.9 1272.48 661.8 1274.82 673.6C1263.53 675.4 1254.78 671 1247.46 663C1232.91 647.1 1218.47 631.1 1203.93 615.2C1202.4 613.6 1200.47 612.1 1202.81 609.8Z" fill="#6DB5DE"/>
<path d="M1103.02 358.1C1102 358.6 1101.09 359.2 1100.07 359.7C1100.07 307.4 1100.07 255.2 1099.87 202.9C1099.87 197.8 1102.51 198.2 1105.97 198.2C1185.62 198.2 1265.16 198.2 1344.8 198.2C1394.54 198.2 1444.38 198.3 1494.12 198.1C1499.21 198.1 1500.63 199.2 1500.63 204.4C1500.43 300.6 1500.53 396.8 1500.53 493C1500.53 495.2 1500.63 497.3 1500.74 499.5C1499.82 499.6 1498.9 499.4 1498.4 498.5C1496.06 495.6 1496.87 492.1 1496.87 488.9C1496.87 398.3 1496.87 307.8 1496.87 217.2C1496.87 214.5 1496.87 211.9 1496.87 209.2C1496.77 202.9 1496.46 202.6 1489.85 202.5C1488.83 202.5 1487.82 202.5 1486.8 202.5C1362.6 202.5 1238.51 202.5 1114.31 202.5C1102.92 202.5 1103.73 202 1103.73 212.8C1103.73 258.7 1103.73 304.7 1103.73 350.6C1103.73 353.2 1103.84 355.7 1103.02 358.1Z" fill="#6088B2"/>
<path d="M1312.36 714.2C1313.58 713.1 1315.1 713.7 1316.53 713.5C1317.75 714.4 1317.14 715.9 1317.54 717C1317.65 719 1317.24 720.9 1316.32 722.7C1314.29 724.3 1311.85 723.9 1309.51 723.9C1293.64 723.9 1277.67 723.9 1261.8 723.9C1255.29 723.9 1254.99 724.2 1254.99 730.7C1254.99 743.8 1254.99 757 1254.99 770.1C1254.99 789.4 1267.6 806.8 1286.11 813.3C1288.55 814.2 1291.5 814.2 1293.23 816.7C1293.13 818.2 1293.34 819.7 1292.42 821C1289.47 822.2 1286.42 821.9 1283.37 821.9C1152.66 821.9 1021.95 821.9 891.145 821.9C889.823 821.9 888.399 822 887.076 821.9C881.787 821.5 877.006 821.8 874.87 827.8C874.057 824.4 874.26 820.9 874.565 817.4C877.108 815 880.261 815.7 883.313 815.7C920.948 815.6 958.482 815.7 996.117 815.6C998.559 815.6 1001.1 816.1 1003.85 814.3C1001.41 812.3 998.864 812.8 996.524 812.8C958.787 812.8 920.948 812.8 883.211 812.7C880.261 812.7 877.006 813.4 874.463 811.2C874.463 810.5 874.463 809.7 874.463 809C917.592 809 960.821 809.1 1003.95 808.9C1007.92 808.9 1010.15 809.6 1009.34 814C1008.93 816.7 1010.26 817.6 1012.8 817.4C1013.61 817.3 1014.53 817.4 1015.34 817.4C1103.23 817.4 1191.01 817.4 1278.89 817.4C1280.52 817.4 1282.15 817.4 1285.2 817.4C1281.03 815.2 1277.98 813.9 1275.23 812.2C1259.36 802.2 1251.02 787.8 1250.41 769.4C1249.9 754.4 1250.41 739.5 1250.21 724.5C1250.21 720.7 1251.73 720.2 1254.99 720.2C1273.81 720.3 1292.52 720.3 1311.44 720.3C1311.34 717.8 1308.49 717.5 1308.08 715.5C1308.49 714.5 1309.41 714.4 1310.32 714.4C1311.24 714.9 1312.05 715.7 1312.36 714.2Z" fill="#6088B2"/>
<path d="M900.706 553.9C900.604 554.2 900.706 554.5 901.011 554.7C899.587 574.5 898.163 594.3 896.739 614.1C896.637 615.9 896.739 617.7 895.722 619.4C878.43 610.6 861.036 601.7 843.032 592.6C862.663 579.4 881.685 566.6 900.706 553.9Z" fill="black"/>
<path d="M1322.63 1154.4C1323.34 1155.1 1323.65 1155.9 1323.54 1156.9C1180.94 1156.9 1038.23 1156.9 895.62 1156.9C893.077 1156.9 890.534 1157 887.991 1157C887.889 1156.1 887.889 1155.2 887.788 1154.4C889.11 1152.7 890.941 1152.6 892.873 1152.5C894.603 1152.4 896.23 1152.4 897.959 1152.4C1036.19 1152.4 1174.33 1152.4 1312.56 1152.4C1315.92 1152.5 1319.68 1151.5 1322.63 1154.4Z" fill="#5881AE"/>
<path d="M796.751 1198.2C787.19 1192.7 777.629 1187.3 768.169 1181.7C766.033 1180.4 763.999 1179 761.252 1179C761.659 1171.6 761.456 1164.2 762.575 1156.9C763.897 1155.7 765.626 1155.6 767.254 1155.6C776.306 1155.6 785.359 1155.6 794.514 1155.6C798.277 1155.6 799.803 1157.1 799.701 1161C799.498 1167.3 799.294 1173.5 799.905 1179.8C799.294 1185.9 798.684 1192 798.074 1198.1C797.565 1198.1 797.158 1198.2 796.751 1198.2Z" fill="white"/>
<path d="M591.485 1154.4C591.384 1155.3 591.384 1156.2 591.282 1157C587.01 1157 582.84 1156.7 578.568 1157C574.195 1157.4 572.771 1155.6 573.381 1151.6C573.584 1150.5 573.381 1149.3 573.381 1148.1C573.381 1055 573.381 962 573.381 868.9C573.381 866.7 573.381 864.6 573.279 862.4C573.991 862.4 574.703 862.4 575.415 862.4C577.246 864.3 576.941 866.7 576.941 869C577.043 877 576.941 884.9 576.941 892.9C576.941 900.5 577.246 900.7 584.874 900.9C588.841 901 593.011 900 596.774 902.2C597.385 903.1 597.385 904 596.571 904.8C593.927 906.4 590.977 906 588.129 906C576.331 906.1 577.043 904.9 577.043 917.2C577.043 948.3 577.043 979.4 577.043 1010.5C577.043 1054.1 577.043 1097.6 577.043 1141.2C577.043 1142.7 577.043 1144.2 577.043 1145.7C577.144 1152.2 577.449 1152.4 583.857 1152.7C586.603 1152.6 589.451 1152 591.485 1154.4Z" fill="#5882AE"/>
<path d="M883.414 662.2C884.126 661.9 884.838 661.5 885.55 661.2C888.907 678 892.264 694.7 895.519 711.5C899.588 732.4 903.555 753.2 907.623 774.1C908.844 780.4 908.844 780.4 902.334 780.4C892.671 780.4 883.007 780.4 873.446 780.4C873.446 779.6 873.446 778.9 873.446 778.2C876.599 776.3 880.058 777.2 883.313 777.1C888.399 777 893.485 777.1 898.57 777C903.758 776.9 904.165 776.5 903.249 771.5C901.113 760.4 898.977 749.3 896.841 738.2C892.365 715 887.788 691.8 883.516 668.6C883.109 666.4 882.295 664.3 883.414 662.2Z" fill="#5B84B0"/>
<path d="M1530.95 1075.2C1534.51 1075.8 1533.08 1078.6 1533.08 1080.4C1533.18 1105.7 1533.18 1130.9 1533.18 1156.2C1530.03 1158 1526.67 1156.9 1523.42 1157C1515.59 1157.2 1507.75 1157.1 1499.82 1157.1C1499.82 1156.1 1499.82 1155.2 1499.82 1154.2C1501.55 1152.4 1503.79 1152.6 1505.92 1152.5C1511.11 1152.4 1516.4 1152.5 1521.59 1152.5C1529.12 1152.5 1529.32 1152.3 1529.32 1145C1529.32 1124.3 1529.32 1103.5 1529.32 1082.8C1529.42 1080.2 1529.01 1077.5 1530.95 1075.2Z" fill="#6F93B9"/>
<path d="M1149.81 552.3C1151.24 552.8 1152.66 553.3 1153.57 554.5C1136.99 554.6 1120.42 554.6 1103.73 554.7C1100.78 554.7 1099.97 553.7 1099.97 550.9C1100.17 540.4 1100.07 529.9 1100.17 519.4C1101.09 519.5 1101.9 519.9 1102.41 520.7C1104.75 527.2 1103.43 533.9 1103.53 540.5C1103.84 551.4 1102.72 551 1114.41 551C1123.16 551 1132.01 551 1140.76 551C1143.91 551 1146.86 551.3 1149.81 552.3Z" fill="#5A83AF"/>
<path d="M1098.14 494.1C1107.29 499.6 1116.55 505.1 1125.7 510.6C1126.93 511.3 1128.96 512.1 1128.04 513.8C1126.93 515.9 1125.2 514.7 1123.77 513.8C1114.52 508.4 1105.26 502.9 1096 497.5C1095.49 495.7 1095.39 494 1098.14 494.1Z" fill="#060403"/>
<path d="M1102.41 490.4C1101.7 491.1 1100.89 491.9 1100.17 492.6C1100.17 478.3 1100.17 463.9 1100.17 449.6C1101.09 449.7 1101.8 450.1 1102.11 450.9C1103.43 452.4 1103.53 454.3 1103.53 456.1C1103.63 465.6 1103.53 475.1 1103.53 484.6C1103.63 486.6 1103.12 488.5 1102.41 490.4Z" fill="#5882AE"/>
<path d="M998.151 729.1C995.1 729.6 994.591 728.2 993.777 727.2C989.607 721.6 985.437 716 981.368 710.4C980.86 709.8 980.148 709.1 980.962 708.2C981.877 707.3 982.487 708.1 982.996 708.7C987.878 715.3 992.76 721.9 998.151 729.1Z" fill="#638AB4"/>
<path d="M1152.15 738.7C1149.61 747.2 1146.35 755.4 1141.47 762.9C1143.71 754.2 1147.17 746.2 1152.15 738.7Z" fill="#6289B3"/>
<path d="M1096.72 630.4C1103.84 625.3 1111.06 620.1 1118.18 615C1118.59 615.5 1118.89 616 1119.3 616.5C1112.58 622.3 1105.26 627.2 1097.94 632C1097.53 631.5 1097.12 631 1096.72 630.4Z" fill="#6289B3"/>
<path d="M1322.63 1154.4C1178.7 1154.4 1034.77 1154.4 890.84 1154.4C889.823 1154.4 888.806 1154.4 887.789 1154.3C886.466 1120.8 885.042 1087.2 883.72 1053.7C881.889 1005.5 880.058 957.4 878.227 909.2C878.126 907.6 878.329 905.9 878.329 904.2C880.973 902.1 884.127 902.8 887.178 902.8C976.181 902.8 1065.28 902.8 1154.29 902.8C1190.8 902.8 1227.42 902.8 1263.94 902.8C1266.58 902.8 1269.43 902.1 1271.67 904.2C1269.13 914.9 1266.79 925.6 1264.14 936.2C1259.97 952.8 1260.79 969.1 1266.28 985.3C1284.99 1040.8 1303.51 1096.3 1322.02 1151.8C1322.43 1152.8 1322.43 1153.6 1322.63 1154.4Z" fill="white"/>
<path d="M680.081 436.6C700.425 437 720.768 437.2 741.112 436.5C742.739 435 744.875 435.1 746.808 435.1C757.793 435.1 768.677 434.9 779.662 435.2C794.615 435.5 809.669 435.2 824.621 435.3C826.961 435.3 829.3 435 831.64 435.8C834.081 437.3 832.86 439.5 832.86 441.5C830.826 451.8 829.3 462.1 829.911 472.6C830.419 482.2 836.115 489 845.372 492C848.423 493 851.576 493.7 854.73 494.2C858.493 494.8 860.121 496.7 858.595 500.5C857.069 502.1 854.933 502 853 502.5C844.761 504.5 839.98 509.5 838.353 517.6C837.641 520.9 837.946 524.6 835.709 527.5C821.875 534 815.874 547.4 807.126 558.5C805.295 560.8 807.329 561.8 808.55 563C816.891 571.7 825.333 580.4 833.674 589C836.421 591.9 839.167 594.8 842.218 598C834.59 602.4 827.266 606.6 820.044 610.9C818.518 611.8 816.484 612.2 815.874 614.3C803.668 622.3 790.648 629.1 778.137 636.6C776 637.9 773.864 639.2 770.711 640.9C782.917 637.2 794.004 633.3 805.295 629.9C809.567 628.6 812.924 628.8 816.789 631.1C828.08 638 839.675 644.6 851.068 651.4C854.526 653.5 858.188 655 862.257 655.7C865.003 658 867.648 660.3 870.394 662.6C873.242 670.8 871.716 678.8 869.173 686.7C834.895 687.3 800.514 687.7 766.236 688.8C751.894 689.3 737.551 689.1 723.108 689.6C716.394 689.8 709.579 690 702.866 690.2C700.832 689.3 701.34 687.4 701.238 685.9C700.832 681.4 700.832 681.4 696.661 683.7C692.898 685.9 689.134 688.1 685.371 690.4C684.455 691 683.438 691.5 682.421 691.8C660.958 697.3 642.039 683.3 640.92 661.6C639.7 637.6 638.479 613.6 637.157 589.6C636.546 578.4 635.326 567.1 635.834 555.8C635.936 552.3 636.343 548.8 635.224 545.4C634.715 542.5 634.715 539.6 634.817 536.6C634.715 532.9 635.326 529.1 634.207 525.4C633.698 522.5 633.8 519.6 633.8 516.6C633.8 512.9 634.309 509.1 633.19 505.5C632.579 502.4 632.783 499.2 632.783 496.1C633.088 493.6 632.579 491.3 632.071 488.9C629.833 465.4 646.311 443.3 670.418 436.4C671.741 436.2 673.063 435.7 674.385 435.5C676.419 435.4 678.454 435.1 680.081 436.6Z" fill="#202B6D"/>
<path d="M874.972 827.9C875.379 820.2 875.379 820.2 883.72 820.2C1017.78 820.2 1151.95 820.2 1286.01 820.2C1288.15 820.2 1290.39 819.5 1292.32 821.1C1285.71 848.1 1278.99 875.1 1272.38 902.2C1270.65 903.8 1268.52 903.3 1266.58 903.3C1139.03 903.3 1011.48 903.3 884.025 903.3C882.093 903.3 879.957 903.8 878.227 902.1C876.702 890 877.108 877.9 876.396 865.8C875.786 853.2 875.481 840.5 874.972 827.9Z" fill="white"/>
<path d="M795.429 904.4C796.039 929.1 796.649 953.9 797.158 978.6C797.972 1021.8 798.684 1064.9 799.497 1108.1C799.802 1122.4 799.497 1136.6 799.701 1150.9C799.701 1153.4 799.091 1155.4 796.344 1155.4C785.562 1155.6 774.78 1156.1 763.999 1155.1C763.49 1155.1 763.083 1154.7 762.676 1154.4C763.795 1132 764.812 1109.6 766.033 1087.1C767.559 1057.5 769.186 1028 770.814 998.4C772.543 967 774.272 935.6 776.001 904.2C782.409 902.1 788.919 902 795.429 904.4Z" fill="white"/>
<path d="M637.36 555.7C639.089 591.8 640.717 627.8 642.751 663.9C643.768 682.2 660.043 694 679.572 691.3C680.793 691.1 681.912 690.9 683.031 690.7C686.693 696.6 686.387 703.4 687.405 709.8C690.253 728.1 693.304 746.4 696.152 764.7C696.864 769.3 696.356 773.9 697.169 778.5C697.068 779.9 697.678 781.4 696.559 782.6C673.876 739.4 651.194 696.2 628.511 652.9C627.494 651 626.578 649.1 626.477 646.8C625.358 616.7 624.137 586.6 622.917 556.5C622.917 555.8 623.12 555.2 623.12 554.5C628.511 552.2 634.207 552.7 637.36 555.7Z" fill="white"/>
<path d="M689.237 904.3C688.118 923.7 687.101 943.1 685.982 962.5C684.558 986.7 682.829 1010.9 681.303 1035.1C678.76 1074.7 676.319 1114.4 673.877 1154C672.352 1155.1 670.826 1155.4 669.605 1153.6C669.605 1152.9 669.605 1153.8 669.605 1153.1C668.283 1072.8 668.283 992.4 668.385 912.1C668.385 909.5 668.079 906.7 669.605 904.3C676.115 902.1 682.727 902 689.237 904.3Z" fill="white"/>
<path d="M869.174 686.8C869.581 678.8 869.988 670.7 870.395 662.7C872.938 665.2 875.582 665.8 878.837 663.8C880.16 663 881.991 662.7 883.516 662.2C887.178 680.9 890.941 699.6 894.603 718.3C898.163 736.9 901.52 755.5 905.283 774C905.995 777.5 905.284 778.3 901.825 778.3C892.366 778.1 882.906 778.2 873.446 778.2C872.734 763.8 872.022 749.4 871.412 735C870.598 718.9 869.886 702.9 869.174 686.8Z" fill="white"/>
<path d="M775.899 902C777.018 880.3 778.137 858.7 779.256 837C779.561 831.4 779.968 825.8 780.273 820.2C784.85 818.2 789.529 818.3 794.107 820.1C794.513 842.6 794.92 865.2 795.226 887.7C795.226 889.2 795.327 890.7 795.429 892.2C795.632 905.6 797.158 903.1 784.647 903.2C781.697 903.3 778.544 904.4 775.899 902Z" fill="white"/>
<path d="M669.808 851.4C677.437 849.9 685.269 849.3 693 848.6C691.982 864.5 691.067 880.4 690.05 896.2C689.948 898.2 689.541 900.1 689.236 902.1C682.726 904.3 676.216 903.6 669.706 902.5C668.282 900.6 668.384 898.4 668.384 896.3C668.384 883.4 668.384 870.5 668.384 857.5C668.384 855.4 668.282 853.2 669.808 851.4Z" fill="white"/>
<path d="M874.463 811.4C916.981 811.4 959.397 811.4 1001.91 811.4C1003.54 811.4 1005.98 810.2 1006.59 812.8C1007.2 815.4 1007.1 817.7 1003.03 817.5C996.931 817.3 990.828 817.4 984.725 817.4C948.005 817.4 911.285 817.3 874.565 817.3C874.565 815.5 874.565 813.4 874.463 811.4Z" fill="white"/>
<path d="M685.168 689.5C690.661 686.2 696.154 682.9 702.359 679.1C702.562 683.3 702.766 686.8 702.969 690.3C701.443 714.7 699.917 739 698.29 763.4C696.866 763.7 696.052 762.9 695.645 761.7C692.288 742.4 689.338 723 686.388 703.6C685.676 698.9 683.642 694.3 685.168 689.5Z" fill="white"/>
<path d="M878.329 902.1C1009.75 902.1 1141.06 902.1 1272.48 902.1C1272.28 902.8 1271.97 903.6 1271.77 904.3C1140.66 904.3 1009.54 904.3 878.329 904.3C878.329 903.6 878.329 902.8 878.329 902.1Z" fill="#5881AE"/>
<path d="M793.903 780.4C793.903 790 793.903 799.6 793.903 809.2C790.75 811.7 787.19 810.7 783.731 810.4C781.595 810.2 781.188 808.6 781.29 806.7C781.392 802.9 781.188 799.1 781.392 795.3C781.595 790.7 781.9 786.2 782.104 781.6C785.155 778.5 788.715 778.1 793.903 780.4Z" fill="#FDFDFD"/>
<path d="M782.815 778.2C782.408 769.4 783.629 760.6 783.833 751.8C783.934 749.9 784.545 749.4 786.579 749.3C794.31 749 794.412 749.1 794.311 756.7C794.209 763.9 794.107 771 794.005 778.2C790.241 780.2 786.478 780 782.815 778.2Z" fill="#FDFDFD"/>
<path d="M685.168 689.5C689.033 713.8 692.797 738.1 696.662 762.5C697.781 764.3 698.188 766.3 697.984 768.5C697.781 771.9 697.476 775.2 697.272 778.6C694.627 762.8 691.983 746.9 689.44 731.1C687.304 717.7 685.269 704.2 683.133 690.8C683.744 690.2 684.456 689.8 685.168 689.5Z" fill="#5F87B1"/>
<path d="M762.575 1154.4C773.255 1154.4 783.833 1154.3 794.514 1154.5C798.277 1154.6 799.498 1153.6 799.396 1149.8C799.193 1135.9 799.396 1121.9 799.396 1108C799.498 1123.3 799.701 1138.5 799.803 1153.8C799.904 1162.4 800.006 1171 800.108 1179.7L799.701 1179.8C798.379 1173.7 799.192 1167.6 799.294 1161.5C799.294 1157.7 798.074 1156.8 794.412 1156.8C783.732 1157 773.052 1156.9 762.473 1156.9C762.575 1156.1 762.575 1155.3 762.575 1154.4Z" fill="#5881AE"/>
<path d="M672.454 1179.1C672.148 1179.7 671.945 1180.4 671.64 1181C669.3 1180.6 668.893 1179.1 668.995 1177.1C669.198 1170.4 669.3 1163.6 669.402 1156.9C670.928 1155.8 672.352 1155.9 673.776 1157.2C673.267 1164.5 672.86 1171.8 672.454 1179.1Z" fill="#FBF8F7"/>
<path d="M794.004 811.4C794.004 813.5 794.004 815.6 794.004 817.7C790.546 819.7 786.884 818.9 783.223 818.6C780.578 818.4 780.07 816.6 780.477 814.3C780.578 813.3 780.782 812.3 780.883 811.4C785.257 809.8 789.631 809.8 794.004 811.4Z" fill="#F6F8FA"/>
<path d="M775.899 902C780.782 902 785.563 901.8 790.445 902.1C794.006 902.3 795.938 901.5 795.226 897.5C794.921 895.8 795.328 893.9 795.43 892.1C795.938 896.2 796.244 900.2 795.43 904.3C788.919 904.3 782.409 904.3 775.899 904.3C775.899 903.6 775.899 902.8 775.899 902Z" fill="#5880AC"/>
<path d="M780.476 814.3C780.476 816.6 781.29 817.9 784.036 817.7C787.393 817.5 790.75 817.7 794.107 817.7C794.107 818.5 794.107 819.3 794.107 820.2C789.529 820.2 784.85 820.2 780.272 820.3C779.967 818.2 779.662 816.3 780.476 814.3Z" fill="#5881AE"/>
<path d="M794.004 811.4C789.631 811.4 785.257 811.4 780.884 811.4C780.782 806 780.579 800.7 781.494 795.3C781.596 798.4 781.901 801.6 781.596 804.7C781.189 808.6 782.816 809.7 786.478 809.3C789.02 809 791.563 809.2 794.004 809.2C794.004 810 794.004 810.7 794.004 811.4Z" fill="#5881AE"/>
<path d="M670.012 902C676.42 902 682.829 902.1 689.237 902.1C689.237 902.8 689.237 903.6 689.237 904.3C682.829 904.3 676.42 904.3 670.012 904.3C669.402 903.5 669.402 902.8 670.012 902Z" fill="#5881AE"/>
<path d="M782.816 778.2C786.478 778.2 790.242 778.2 793.904 778.1C793.904 778.9 793.904 779.6 793.904 780.4C790.038 781 785.766 778.9 782.104 781.7C781.595 780.4 782.409 779.3 782.816 778.2Z" fill="#6289B3"/>
<path d="M673.776 1157.2C672.352 1157.1 670.826 1157 669.402 1156.9C669.301 1156.3 669.3 1155.7 669.199 1155C669.3 1154.6 669.606 1154.2 669.911 1154C671.233 1154 672.555 1154 673.877 1154C673.877 1155.1 673.776 1156.1 673.776 1157.2Z" fill="#7B8DAB"/>
<path d="M697.984 768.4C697.578 766.4 697.171 764.4 696.663 762.4C697.171 762.7 697.781 763 698.289 763.3C698.594 765.1 698.594 766.7 697.984 768.4Z" fill="#C4BAB8"/>
<path d="M1378.17 1051.9C1366.67 1022.5 1355.18 993 1343.58 963.7C1342.57 961.1 1343.68 959.1 1344.29 957C1357.72 911.6 1371.35 866.2 1384.88 820.8C1386.81 814.4 1388.85 808.1 1390.58 801.7C1391.29 799.1 1392.41 798.2 1395.15 798.4C1401.26 798.8 1407.36 799.2 1413.36 799.2C1416.72 799.2 1417.12 800.6 1417.12 803.4C1416.72 828 1416.41 852.6 1416.01 877.2C1415.29 930.8 1414.58 984.3 1413.77 1037.9C1413.67 1042.4 1413.36 1046.8 1413.06 1051.3C1412.34 1051.8 1411.63 1052.4 1410.82 1052.4C1400.04 1052.8 1389.05 1053.5 1378.17 1051.9Z" fill="#6DB5DE"/>
<path d="M1364.23 661.1C1355.48 659.9 1346.74 661.2 1337.18 660.4C1348.57 654.1 1359.65 651.4 1371.86 655.3C1377.46 657.1 1383.05 658.9 1388.64 660.7C1392.41 659.9 1395.87 661.7 1399.53 662.1C1410.41 663.4 1421.3 662.8 1432.28 663C1434.72 663.1 1437.37 662.6 1439.5 664.5C1454.96 665.6 1470.53 665.5 1486.09 665.6C1490.16 665.6 1491.48 666.3 1489.95 670.6C1485.58 682.6 1481.21 694.6 1477.54 706.9C1475.92 712.5 1473.27 714.1 1467.68 713.6C1458.63 712.9 1449.47 713 1440.42 712.8C1438.79 712.8 1437.06 712.4 1435.54 713.4C1433.4 713.2 1431.16 712.8 1429.03 712.7C1393.32 712.6 1357.62 712.5 1321.82 712.4C1321.1 712.4 1320.49 712.5 1319.78 712.6C1310.42 712.2 1302.69 709.2 1298.32 700.4C1295.98 695.7 1296.39 695.3 1301.57 695.1C1311.34 694.8 1321 695.8 1330.77 694.6C1329.85 692.2 1327.82 692.9 1326.09 692.9C1318.26 692.8 1310.42 692.9 1302.49 692.8C1300.35 692.8 1298.01 693.2 1296.59 691C1296.59 688.2 1296.49 685.3 1296.49 682.5C1298.32 680.5 1300.86 680.9 1303.1 680.9C1311.24 680.8 1319.27 680.9 1327.41 680.4C1319.68 679.9 1312.05 680 1304.32 679.9C1301.68 679.9 1298.83 680.5 1296.69 678.2C1298.73 671.8 1303.2 668 1309.92 666.8C1316.12 665.7 1322.43 664.5 1328.63 663.3C1338.9 662.3 1349.18 663.2 1359.45 662.8C1361.08 662.9 1363.62 664.2 1364.23 661.1Z" fill="#FD9993"/>
<path d="M1293.23 816.7C1270.14 812.3 1253.46 793 1253.26 770C1253.06 755.7 1253.36 741.4 1253.16 727.2C1253.16 723.8 1253.97 722.6 1257.63 722.6C1277.26 722.8 1296.79 722.7 1316.42 722.8C1310.22 748.6 1304.02 774.3 1297.71 800.1C1296.28 805.6 1294.76 811.2 1293.23 816.7Z" fill="white"/>
<path d="M1530.95 1075.2C1530.95 1100.4 1531.05 1125.6 1531.15 1150.8C1531.15 1153.9 1529.83 1154.3 1527.18 1154.3C1518.03 1154.2 1508.98 1154.2 1499.82 1154.1C1499.72 1127.8 1499.72 1101.5 1499.62 1075.3C1509.99 1075.3 1520.47 1075.3 1530.95 1075.2Z" fill="white"/>
<path d="M1378.17 1051.9C1384.88 1050.3 1391.8 1051.5 1398.61 1051.2C1403.49 1051 1408.28 1051.2 1413.16 1051.2C1413.06 1072.3 1412.85 1093.4 1412.75 1114.5C1412.75 1122.1 1412.75 1129.7 1412.75 1137.3C1412.24 1137.4 1411.84 1137.5 1411.33 1137.5C1400.24 1109 1389.25 1080.5 1378.17 1051.9Z" fill="white"/>
<path d="M1317.65 717C1315.92 716.2 1316.63 714.7 1316.63 713.5C1317.34 713.6 1318.05 713.6 1318.76 713.7C1318.36 714.8 1317.95 715.9 1317.65 717Z" fill="#E7EDF3"/>
<path d="M1103.02 358.1C1101.8 356.4 1102.31 354.6 1102.31 352.8C1102.31 304 1102.31 255.3 1102.21 206.5C1102.21 201.9 1103.33 200.7 1108.11 200.7C1236.27 200.8 1364.44 200.8 1492.6 200.7C1497.28 200.7 1498.4 202 1498.4 206.5C1498.3 303.9 1498.3 401.2 1498.4 498.6C1498.09 498.7 1497.89 498.8 1497.58 498.7C1494.74 499.6 1491.89 499.2 1489.04 499.1C1477.44 499 1465.75 499.5 1454.15 499C1451.3 495.7 1452.22 492 1453.03 488.3C1454.15 486.4 1456.08 486.3 1457.91 486.3C1463.71 486.3 1469.41 485.8 1475.1 486.8C1478.97 487.5 1482.83 487.3 1486.8 487.1C1493.62 486.8 1495.65 483 1492.19 477C1491.68 476.1 1491.07 475.3 1490.56 474.4C1483.75 462.9 1480.49 450.5 1479.99 437.3C1479.68 429.3 1478.97 421.4 1477.54 413.5C1473.88 393.1 1464.02 384.5 1442.96 383C1433.7 382.4 1424.45 381 1415.19 380.4C1402.38 379.6 1390.27 382.9 1380.1 391C1375.12 395 1374 400.8 1374.1 406.8C1374.2 412.4 1373.39 413.1 1367.69 412.8C1366.98 412.8 1366.37 412.6 1365.66 412.6C1364.44 412.5 1363.11 412.1 1362.3 413.1C1361.28 414.4 1362.4 415.7 1363.11 416.7C1367.89 423.3 1371.66 430.8 1379.18 435C1380.4 436.3 1381.02 437.9 1380.91 439.5C1380.3 447.8 1382.54 455.4 1386.2 462.7C1383.25 469.2 1378.47 474.6 1374.81 480.7C1369.01 490.2 1363.42 499.8 1358.13 509.6C1355.08 515.9 1349.48 520.2 1345.11 525.4C1339.31 532.5 1332.9 539.2 1327 546.2C1325.78 547.7 1324.16 548.4 1322.63 549.5C1318.46 551.2 1313.98 551.7 1309.61 552.3C1307.47 551.5 1306.76 549.7 1305.95 547.8C1305.24 546.2 1304.93 543.5 1303.1 543.6C1300.96 543.6 1301.37 546.3 1300.76 547.9C1300.56 548.4 1300.46 548.9 1300.35 549.3C1299.54 552.2 1297.61 553.7 1294.45 553.7C1272.08 553.8 1249.6 553.7 1227.22 553.7C1225.49 553.7 1223.86 553.3 1222.44 552.4C1214.3 542.1 1205.96 531.9 1198.03 521.4C1192.74 514.4 1191.21 505.6 1187.65 497.8C1185.31 492.7 1184.19 487.1 1180.84 482.4C1183.07 480.2 1185.92 481 1188.57 481C1228.54 480.9 1268.52 481 1308.49 481C1316.12 481 1316.12 481 1317.54 473.7C1320.29 460 1321.41 446.1 1321.61 432.1C1321.92 414.3 1320.9 396.7 1317.44 379.2C1316.22 373 1316.02 372.9 1309.51 372.9C1304.12 372.9 1298.62 372.8 1293.23 372.9C1289.77 373 1287.54 371.7 1286.21 368.4C1284.08 362.9 1279.91 360 1273.81 359.9C1267.7 359.8 1263.84 363.2 1261.8 368.3C1260.38 371.9 1258.04 372.9 1254.48 372.9C1238 372.8 1221.62 372.9 1205.15 372.9C1201.59 372.9 1198.84 372.1 1197.52 368.5C1195.58 363.3 1191.62 360.4 1186.12 360C1180.33 359.6 1176.05 362.2 1173.21 367.1C1172.7 368 1172.19 368.9 1171.27 369.3C1164.05 362.5 1156.22 356.5 1146.46 353.6C1131.2 349.5 1116.75 350.9 1103.02 358.1Z" fill="white"/>
<path d="M1439.4 664.5C1425.57 664.7 1411.84 664.7 1398 663.8C1394.65 663.6 1391.49 662.3 1388.54 660.7C1384.27 639.6 1380.1 618.6 1375.83 597.5C1375.32 594.9 1374.61 592.3 1375.32 589.7C1374.3 587.7 1375.32 585.8 1376.03 584C1386.2 557.1 1396.48 530.3 1405.83 503.2C1406.44 501.5 1407.05 499.7 1408.99 498.9C1422.82 497.8 1436.65 498.2 1450.49 498.4C1451.3 498.4 1452.12 498.8 1452.83 499.2C1453.03 499.4 1453.34 499.6 1453.54 499.8C1452.22 514.5 1450.79 529.2 1449.47 543.9C1446.52 578 1443.57 612.1 1440.72 646.1C1440.32 652.2 1439.91 658.3 1439.4 664.5Z" fill="black"/>
<path d="M1453.95 498.7C1468.49 498.7 1482.94 498.7 1497.48 498.7C1489.95 500.5 1482.43 499.2 1474.9 499.5C1467.88 499.7 1467.88 499.5 1467.88 506.5C1467.88 525.5 1467.98 544.5 1467.78 563.4C1467.78 566.3 1468.49 567.7 1471.64 568.5C1480.29 570.6 1483.55 577.2 1481.92 588.3C1480.9 595.2 1476.12 600.6 1467.47 599.8C1464.93 599.6 1462.39 599.9 1459.85 599.6C1458.42 599.5 1456.79 599 1455.57 598.3C1447.23 593.4 1449.47 585.3 1449.78 578C1450.08 572.6 1454.05 569.1 1459.34 568.4C1463.71 567.8 1464.02 565.6 1464.02 562.1C1463.81 543.5 1464.02 524.8 1463.91 506.2C1463.91 498.9 1465.24 499.6 1457.3 499.5C1456.08 499.5 1454.96 499.6 1453.74 499.7L1453.54 499.3C1453.44 499 1453.54 498.7 1453.95 498.7Z" fill="#FDFDFE"/>
<path d="M1531.05 820.5C1531.05 840.8 1531.05 861 1531.05 881.3C1530.84 881.3 1530.54 881.3 1530.34 881.3C1528.2 866.8 1526.06 852.3 1523.83 837.8C1523.22 833.9 1522.71 829.9 1522 826C1521.28 822.1 1521.79 819.4 1526.88 820.2C1528.2 820.4 1529.62 820.3 1530.95 820.3L1531.05 820.5Z" fill="#F5F8FA"/>
<path d="M1533.08 818.4C1533.08 844 1533.08 869.5 1533.08 895.1C1531.66 890.9 1531.66 886.8 1531.76 882.5C1532.17 862.7 1531.96 843 1531.96 823.2C1531.96 822.2 1531.96 821.2 1531.05 820.5L1530.95 820.4C1528.2 818.3 1524.84 820.4 1521.89 818.4C1525.66 818.3 1529.32 818.3 1533.08 818.4C1533.08 818.4 1532.98 818.3 1533.08 818.4Z" fill="#5D86B1"/>
<path d="M670.012 1154C669.809 1154.3 669.503 1154.7 669.3 1155C669.3 1134.2 669.198 1113.4 669.198 1092.6C669.198 1085.6 669.3 1085.8 662.383 1086.7C641.735 1089.3 621.086 1091.7 600.437 1094.3C598.606 1094.5 596.775 1094.9 594.944 1095.2C594.538 1091.1 595.25 1086.9 595.25 1082.8C595.148 1026.4 595.148 970 595.25 913.5C595.25 910.4 594.639 907.1 596.775 904.3C596.775 903.5 596.775 902.8 596.775 902C595.25 900.4 595.351 898.4 595.351 896.4C595.25 886 595.25 875.6 595.351 865.2C595.351 863.2 595.25 861.2 596.877 859.6C621.188 856.8 645.6 854.1 669.91 851.3C670.012 868.2 670.012 885.1 670.114 901.9C670.114 902.7 670.114 903.4 670.114 904.2C670.012 938.5 670.012 972.8 670.012 1007.1C669.91 1056.1 669.91 1105.1 670.012 1154Z" fill="#FD9993"/>
<path d="M635.225 516.8C635.327 519.8 635.428 522.7 635.632 525.7C635.734 526 635.835 526.3 635.937 526.7C636.446 536.3 631.563 539.1 622.307 534.6C620.679 528.5 618.95 522.4 615.085 517.3C607.354 506.9 596.979 501.3 583.857 500.6C582.739 499.1 581.62 499.2 580.501 500.6C573.381 500.6 566.159 500.5 559.038 500.5C557.004 499.2 557.004 497.2 557.004 495.2C556.902 491.2 557.004 487.2 557.004 483.2C557.004 479 558.733 476.8 563.209 476.2C569.108 475.5 574.906 474 580.297 471.5C594.945 464.6 598.2 455.1 598.403 440.8C598.403 436.2 597.793 431.5 597.589 426.9C597.589 426.4 597.793 425.9 598.098 425.5C599.725 424.2 601.862 424.7 603.998 424.2C602.268 423.8 600.641 424 599.319 423.3C598.403 422.8 597.793 422.1 597.386 421.2C596.877 419.4 595.453 417.5 597.996 416C605.32 413.7 606.235 412 606.439 401.8C608.168 400.2 610.304 400.8 612.237 400.8C624.036 400.7 635.937 400.8 647.736 400.8C635.632 400.8 623.527 400.8 611.423 400.8C609.287 400.8 606.947 401.3 605.523 399C603.387 391.6 597.488 387.9 591.079 384.8C588.537 383.6 585.79 382.8 583.145 381.7C584.163 378.7 586.807 379.9 588.74 379.9C608.168 379.8 627.698 379.8 642.447 379.8C625.46 380 603.896 379.9 582.332 379.8C572.16 379.7 562.09 379.2 551.918 379.8C550.087 379.9 548.155 379.7 546.425 380.6C541.339 381.3 536.254 382 531.168 382.7C529.54 381.1 529.642 379.1 529.642 377.1C529.642 359.3 529.642 341.5 529.642 323.7C529.642 317.6 530.862 316.4 537.067 316.4C580.196 316.4 623.426 316.4 666.554 316.4C672.861 316.4 673.878 317.4 673.878 323.8C673.878 359.6 673.878 395.3 673.878 431.1C673.878 433.6 674.081 436.2 671.437 437.8C652.314 442.8 632.072 461.7 633.801 488.8C632.886 490.4 631.36 491.4 630.037 492.7C623.833 498.8 624.443 507.7 631.36 512.9C632.58 514 634.615 514.6 635.225 516.8Z" fill="white"/>
<path d="M596.776 859.6C596.776 873.7 596.674 887.9 596.674 902C591.08 902 585.587 901.8 579.992 902.1C576.33 902.3 575.415 900.9 575.517 897.5C575.618 885.8 575.517 874 575.517 862.3C582.535 860.7 589.656 860.5 596.776 859.6Z" fill="white"/>
<path d="M636.241 536.8C636.342 539.7 636.546 542.6 636.648 545.6C637.258 547.4 636.851 549.2 636.953 551C636.953 552.4 636.241 553.3 634.919 553.4C631.562 553.7 628.104 553.9 624.849 553.3C621.391 552.7 623.628 549.3 622.408 547.5C622.408 543.9 622.306 540.3 622.306 536.6C626.985 535.1 631.562 534.9 636.241 536.8Z" fill="#FBFBFC"/>
<path d="M622.408 547.5C623.832 548.9 621.798 552.1 624.748 552.3C628.41 552.6 632.275 552.9 635.632 551.9C637.768 551.2 635.937 547.7 636.649 545.6C638.276 548.9 637.259 552.3 637.361 555.7C632.784 553.5 628.003 555.2 623.324 554.6C622.001 552.4 621.798 550 622.408 547.5Z" fill="#5A7EAB"/>
<path d="M636.241 536.8C631.562 536.7 626.883 536.7 622.306 536.6C622.306 535.9 622.306 535.2 622.306 534.5C625.154 534.5 628.002 534.2 630.749 534.4C634.715 534.8 636.241 533.4 635.529 529.5C635.326 528.3 635.631 526.9 635.631 525.6C637.258 529.3 636.444 533.1 636.241 536.8Z" fill="#567FAC"/>
<path d="M597.894 426C599.521 435.4 600.539 444.7 597.894 454.1C594.741 465.1 586.603 471.1 576.126 474.6C572.668 475.8 569.006 476.7 565.345 477.4C558.326 478.9 558.224 478.8 558.326 486C558.428 490.8 557.716 495.7 558.835 500.4C552.223 500.4 545.611 500.4 539 500.4C545.103 482.8 535.541 469.8 525.573 456.8C528.828 455.3 531.981 454.2 534.931 452.6C543.272 448.1 548.561 441.2 548.053 431.7C546.934 410.8 557.919 397 574.194 385.7C576.737 383.9 578.771 383.9 581.518 385.3C590.57 389.8 594.436 397.4 595.86 406.8C596.266 409.9 596.165 413.1 597.691 415.9C596.572 417.5 597.894 419.2 597.589 420.8C596.673 421.8 594.741 421.8 594.741 423.3C594.537 425.7 597.182 424.7 597.894 426Z" fill="#FD9993"/>
<path d="M513.367 741.4C518.961 751.4 519.673 755.6 517.741 772C515.198 765.2 512.858 758.3 510.112 751.5C509.298 749.6 509.298 745.5 506.45 746.5C502.89 747.7 505.738 750.9 506.552 752.8C510.519 762.4 513.774 772.3 517.843 782C520.894 789.4 521.606 798.1 521.098 806.5C520.996 807.5 520.691 808.5 520.284 809.4C519.063 811.9 517.639 815.3 514.791 815.4C512.757 815.4 512.655 811.7 511.841 809.6C508.891 802 506.247 794.3 503.297 786.7C502.687 785 502.585 781.8 499.839 783C497.397 784 499.228 786.5 499.94 788.3C503.094 797.2 506.145 806.2 509.705 815C510.926 818 510.01 818.9 507.569 819.3C505.433 819.7 502.89 822.9 501.263 818.2C498.109 808.9 494.549 799.7 491.193 790.5C490.684 789 490.379 786.6 488.243 787.2C485.598 788 487.022 790.2 487.633 791.8C491.193 801.8 494.855 811.8 498.516 821.8C488.141 824.1 478.58 818.8 474.816 808C470.137 794.3 465.967 780.5 461.593 766.7C461.186 765.3 460.678 763.8 460.271 762.4C460.169 760.8 461.186 760.2 462.61 759.6C478.783 753.7 494.956 747.7 511.231 741.7C511.943 741.3 512.655 741.4 513.367 741.4Z" fill="#FD9993"/>
<path d="M485.293 653.3C489.667 633.1 493.939 613.8 498.109 594.5C498.414 593 499.126 591.9 500.754 592.3C502.585 592.7 502.178 594.3 501.873 595.6C497.702 614.6 493.532 633.5 489.26 652.5C488.955 653.9 488.955 655.8 486.717 655.5C484.988 655.3 485.293 653.8 485.293 653.3Z" fill="#FBFBFC"/>
<path d="M596.674 904.3C596.674 934.9 596.775 965.5 596.775 996.1C596.775 1027.2 596.775 1058.3 596.775 1089.4C596.775 1091.5 597.182 1093.8 594.944 1095.2C593.825 1114.9 592.605 1134.7 591.486 1154.4C586.4 1154.3 579.992 1156.5 576.737 1153.6C573.38 1150.7 575.719 1144.2 575.719 1139.3C575.618 1063.3 575.618 987.3 575.618 911.4C575.618 904.4 575.618 904.4 582.942 904.4C587.519 904.3 592.096 904.3 596.674 904.3Z" fill="white"/>
<path d="M1408.68 499.6C1398.1 529.8 1386.81 559.7 1375.42 589.6C1371.76 584 1372.27 577.3 1370.64 571.2C1369.11 565.6 1368.4 559.8 1367.18 554.2C1365.45 545.8 1360.77 542.9 1352.33 544.3C1342.36 546 1332.7 548.8 1322.53 549.7C1332.5 538.3 1342.46 526.9 1352.43 515.4C1354.06 513.5 1355.48 511.5 1357.01 509.6C1359.15 508.6 1359.65 505.8 1361.99 505.2C1369.22 500.5 1377.05 497.9 1385.8 498.3C1390.37 498.6 1394.85 498.8 1395.15 492.5C1395.15 491.8 1395.97 491.5 1396.68 491.5C1398.31 493.5 1396.58 495.7 1397.29 497.4C1397.9 496.4 1396.17 494.3 1398.51 493.4C1400.04 497.5 1403.19 498.9 1407.36 498.7C1407.97 498.9 1408.28 499.2 1408.68 499.6Z" fill="#6DB5DE"/>
<path d="M1256.62 583.7C1253.36 583.3 1252.24 580.3 1250.92 578.3C1247.77 573.6 1245.02 573.5 1241.46 577.4C1235.66 569.9 1229.97 562.4 1224.17 554.9C1225.59 553.2 1227.63 553.7 1229.36 553.7C1249.9 553.7 1270.55 553.6 1291.1 553.7C1292.83 553.7 1295.37 552.6 1296.08 555.5C1285.2 557.6 1274.31 559.6 1263.43 561.8C1257.02 563.1 1253.77 568.4 1255.09 574.9C1255.6 577.8 1256.11 580.7 1256.62 583.7Z" fill="#FDFEFE"/>
<path d="M1296.08 555.5C1295.37 554.6 1294.25 554.7 1293.33 554.7C1270.24 554.7 1247.26 554.8 1224.17 554.8C1223.56 554.1 1222.85 553.4 1222.23 552.6C1245.43 552.5 1268.52 552.3 1291.71 552.5C1296.59 552.5 1299.23 551.5 1299.74 546.4C1299.95 544.1 1300.25 540.3 1302.49 540.1C1305.13 539.8 1305.24 543.7 1306.35 545.8C1307.57 548 1308.59 550.3 1309.61 552.5C1308.49 552.8 1307.47 553.2 1306.35 553.5C1304.73 552 1304.52 549.7 1303.4 547.6C1301.88 549.8 1302.18 552.6 1300.45 554.5C1298.93 554.8 1297.5 555.2 1296.08 555.5Z" fill="#5982AF"/>
<path d="M1296.49 678.3C1306.46 678.4 1316.32 678.4 1326.29 678.6C1328.22 678.6 1331.58 677.3 1331.68 680.4C1331.78 683.7 1328.43 682.4 1326.49 682.4C1316.42 682.6 1306.25 682.5 1296.18 682.5C1293.54 681 1293.95 679.6 1296.49 678.3Z" fill="#050303"/>
<path d="M1364.23 661.1C1366.77 662.5 1366.47 664.5 1363.93 664.5C1352.33 664.7 1340.63 665.2 1329.04 664.2C1328.83 664.2 1328.63 663.7 1328.43 663.4C1329.14 659.7 1331.99 660.3 1334.43 660.6C1344.4 662 1354.26 661.4 1364.23 661.1Z" fill="#0B0707"/>
<path d="M1296.39 691.1C1307.07 691.1 1317.65 691.1 1328.33 691.2C1330.46 691.2 1334.12 690.9 1330.56 694.7C1319.58 694.7 1308.69 694.6 1297.71 694.5C1296.49 694.5 1294.76 694.9 1294.45 693C1294.25 691.8 1295.47 691.5 1296.39 691.1Z" fill="#120B0B"/>
<path d="M1300.35 554.5C1300.05 551.1 1301.78 548.2 1302.59 544.3C1304.73 547.6 1306.46 550.1 1306.25 553.5C1304.32 553.8 1302.29 554.2 1300.35 554.5Z" fill="#F6F8FA"/>
<path d="M1312.36 714.2C1313.47 714.7 1313.88 716.2 1313.17 716.5C1311.64 717.2 1311.14 715.6 1310.52 714.5C1311.24 714.5 1311.75 714.4 1312.36 714.2Z" fill="#F2F4F8"/>
<path d="M1183.58 400.7C1183.07 396.2 1182.46 391.7 1180.73 387.5C1181.85 385.6 1183.78 385.5 1185.62 385.5C1191.41 385.4 1195.18 382.3 1197.21 377.3C1198.53 374 1200.67 372.8 1204.13 372.9C1220.91 373 1237.59 373 1254.38 372.9C1258.24 372.9 1260.38 374.2 1261.7 377.6C1263.94 383.2 1268.31 385.7 1274.42 385.5C1280.21 385.3 1283.98 382.4 1285.91 377.3C1287.13 374 1289.27 372.7 1292.83 372.9C1298.73 373.1 1304.73 373.3 1310.63 372.9C1315 372.6 1316.73 374.7 1317.44 378.4C1319.48 389.8 1321.21 401.3 1321.61 412.9C1322.32 433.7 1321.71 454.4 1317.65 474.9C1316.32 481.6 1316.22 481.9 1309.3 481.9C1280.52 481.8 1251.73 482.1 1223.05 481.8C1212.37 480.8 1201.69 481.9 1191.11 481.3C1174.73 480.4 1158.46 482 1142.08 481.5C1135.57 481.3 1134.55 480.5 1135.47 474.1C1136.08 469.7 1136.79 465.2 1137.4 460.8C1137.61 459.2 1138.32 458 1139.64 457C1147.06 455.9 1153.68 452.6 1160.19 449C1163.24 448.6 1166.19 448.4 1169.24 448.4C1211.86 448.4 1254.58 448.4 1297.2 448.4C1255.09 448.4 1212.98 448.4 1170.87 448.4C1168.22 448.4 1165.37 449.1 1163.14 446.9C1169.14 441.6 1174.33 435.5 1178.39 428.6C1180.63 427.1 1183.28 427.4 1185.82 427.4C1222.54 427.4 1259.26 427.4 1295.88 427.4C1303 427.4 1303 427.4 1303 420.2C1303 415.7 1302.9 411.2 1303 406.7C1303.1 403.4 1301.68 402.3 1298.42 402.4C1289.47 402.5 1280.52 402.4 1271.57 402.4C1244.71 402.4 1217.76 402.4 1190.91 402.4C1188.26 402.2 1185.62 402.7 1183.58 400.7Z" fill="white"/>
<path d="M1179.41 425.7C1182.16 418.6 1183.89 411.4 1183.58 403.8C1185.31 402 1187.55 402.3 1189.79 402.3C1224.78 402.3 1259.87 402.3 1294.86 402.3C1301.78 402.3 1302.79 403.3 1302.79 410.1C1302.79 413.9 1302.79 417.8 1302.79 421.6C1302.79 425.2 1300.96 427.2 1297.3 427.2C1296.59 427.2 1295.98 427.2 1295.27 427.2C1258.75 427.2 1222.13 427.2 1185.62 427.2C1183.38 427.2 1181.14 427.5 1179.41 425.7Z" fill="white"/>
<path d="M1223.25 480.6C1252.04 480.6 1280.82 480.5 1309.61 480.7C1314.08 480.7 1315.71 479.4 1316.42 475.2C1322.12 443.1 1322.22 411 1316.32 378.9C1315.71 375.3 1314.49 373.5 1310.22 373.8C1304.01 374.2 1297.71 374 1291.4 373.9C1289.16 373.9 1288.25 374.5 1287.54 376.7C1285.1 383.7 1280.42 387 1273.7 387C1266.99 387 1262.31 383.9 1259.77 376.7C1258.95 374.5 1257.94 373.9 1255.8 373.9C1238 373.9 1220.2 373.9 1202.4 373.9C1200.77 373.9 1199.45 374.1 1198.84 375.9C1196.3 384.2 1190.5 387.6 1181.95 386.9C1181.55 386.9 1181.04 387.2 1180.53 387.4C1180.12 386.1 1179.72 384.9 1179.31 383.6C1181.04 382.4 1182.87 383.4 1184.7 383.3C1189.99 383.1 1194.36 379.6 1195.08 374.9C1195.89 369 1192.84 363.9 1187.55 362.4C1182.67 361 1177.48 363.5 1175.04 368.4C1174.33 369.8 1174.53 371.8 1172.7 372.6C1172.09 371.6 1171.48 370.6 1170.77 369.5C1172.8 362.6 1177.48 358.8 1184.09 358.6C1190.8 358.4 1195.99 361.7 1198.33 368.4C1199.25 370.9 1200.36 371.7 1203.01 371.7C1220.4 371.6 1237.9 371.6 1255.29 371.7C1257.94 371.7 1258.95 371 1259.77 368.4C1261.7 362.2 1267.19 358.6 1273.6 358.7C1279.91 358.7 1284.99 362 1286.93 368.2C1287.94 371.3 1289.47 371.8 1292.32 371.7C1299.23 371.5 1306.15 371.7 1313.17 371.6C1315.81 371.6 1316.93 372.4 1317.54 375.1C1322.73 400 1323.85 425.2 1321.71 450.5C1320.9 459.8 1319.37 469 1317.85 478.1C1317.24 482 1315.51 482.7 1311.85 482.7C1269.84 482.5 1227.83 482.5 1185.92 482.4C1184.09 482.4 1182.16 482.5 1180.33 482.6C1179.92 482.2 1179.51 481.9 1179.11 481.5C1179 480.4 1179.72 480.1 1180.63 480.1C1194.97 480.4 1209.11 479.7 1223.25 480.6Z" fill="#5983AF"/>
<path d="M1102.41 490.4C1102.31 477.2 1102.21 464.1 1102.11 450.9C1112.99 456 1124.38 458.5 1136.49 457.6C1138.83 460.8 1136.79 464.1 1136.39 467.1C1135.77 471.7 1136.39 476.7 1133.23 480.7C1125.2 478.8 1117.47 478.8 1110.35 483.6C1109.33 484.6 1108.31 485.6 1107.19 486.4C1105.67 487.8 1104.04 489.1 1102.41 490.4Z" fill="white"/>
<path d="M1179.41 425.7C1206.67 425.8 1233.93 425.8 1261.19 425.9C1273.19 425.9 1285.2 425.8 1297.3 426C1300.66 426 1301.78 425.1 1301.57 421.8C1301.37 416.8 1301.47 411.8 1301.57 406.8C1301.57 404.6 1300.96 403.5 1298.42 403.5C1260.18 403.6 1221.93 403.7 1183.68 403.8C1183.68 402.8 1183.68 401.7 1183.68 400.7C1221.73 400.7 1259.87 400.9 1297.91 400.7C1303.1 400.7 1304.83 402.1 1304.42 407.1C1304.02 412.9 1304.22 418.7 1304.32 424.6C1304.42 427.6 1303.2 428.7 1300.15 428.7C1259.56 428.6 1218.98 428.6 1178.29 428.5C1178.6 427.5 1179.01 426.6 1179.41 425.7Z" fill="#688EB6"/>
<path d="M1172.8 372.7C1173.72 365.4 1178.09 361 1184.6 360.9C1190.6 360.8 1195.79 365.1 1196.7 370.8C1197.72 377.1 1194.36 382.5 1188.26 384.3C1185.21 385.2 1182.26 384.7 1179.41 383.7C1177.68 379.8 1175.44 376.1 1172.8 372.7Z" fill="white"/>
<path d="M1162.93 446.7C1200.16 446.8 1237.49 446.8 1274.72 446.9C1282.86 446.9 1290.99 446.9 1299.13 446.9C1300.66 446.9 1302.59 446.1 1303.61 448.1C1302.69 449.9 1300.96 449.3 1299.54 449.3C1254.17 449.3 1208.71 449.3 1163.34 449.3C1162.22 449.3 1161 449.5 1159.88 448.7C1161 448.1 1162.02 447.4 1162.93 446.7Z" fill="#5882AE"/>
<path d="M1115.74 405.8C1112.89 405.8 1110.04 405.8 1107.09 405.8C1105.77 405.8 1104.14 405.8 1104.14 403.9C1104.14 402.2 1105.77 401.9 1107.09 401.9C1112.48 401.9 1117.87 401.7 1123.26 401.9C1126.32 402 1127.54 401.2 1127.33 398C1127.03 394.2 1127.03 390.3 1127.33 386.6C1127.54 384.2 1125.5 379.7 1129.26 379.7C1132.72 379.7 1130.89 384 1131.1 386.4C1131.4 390 1131.5 393.7 1131.1 397.3C1130.69 401.2 1132.32 402.1 1135.98 401.9C1140.86 401.6 1145.74 401.8 1150.63 401.8C1152.25 401.8 1153.98 401.9 1154.08 403.9C1154.19 406.1 1152.15 405.7 1150.73 405.8C1145.84 405.8 1140.86 406.1 1136.08 405.7C1131.91 405.4 1130.89 407 1131.2 410.8C1131.5 414.6 1131.5 418.4 1131.2 422.2C1130.99 424.4 1132.72 428.3 1129.16 428.3C1126.11 428.3 1127.54 424.6 1127.43 422.5C1127.23 418.4 1127.13 414.2 1127.43 410.1C1127.74 406.5 1126.32 405.4 1122.86 405.8C1120.52 406 1118.08 405.8 1115.74 405.8Z" fill="#FBFCFB"/>
<path d="M1133.23 480.9C1134.35 473.2 1135.47 465.4 1136.59 457.7C1137.61 457.4 1138.52 457.1 1139.54 456.8C1138.52 463.7 1137.5 470.5 1136.49 477.4C1135.88 481.4 1139.03 479.7 1140.45 479.7C1166.09 479.9 1191.72 479.9 1217.45 480C1219.49 480 1221.52 479.5 1223.35 480.6C1210.54 480.6 1197.62 480.7 1184.7 480.8C1182.87 480.8 1180.94 480.1 1179.41 481.7C1175.75 479.7 1172.5 480.8 1169.34 482.8C1168.43 483.3 1167.51 484 1166.6 484C1156.63 484.2 1146.56 485.8 1136.69 482.8C1135.17 482.5 1134.05 482 1133.23 480.9Z" fill="#678DB5"/>
<path d="M680.082 436.6C678.047 436.7 676.013 436.7 674.08 436.8C672.453 434.7 673.063 432.3 673.063 430C673.063 394.5 673.063 359.1 673.063 323.6C673.063 316.3 673.063 316.3 665.943 316.3C622.611 316.3 579.178 316.3 535.846 316.3C529.235 316.3 529.235 316.3 529.133 322.9C529.133 340.7 529.133 358.5 529.133 376.3C529.133 379 529.438 381.7 526.793 383.5C509.095 387.8 501.669 396.8 499.33 417.3C498.414 425.7 497.702 434.1 496.889 442.5C495.871 441 496.075 439.3 496.075 437.7C496.075 390.1 496.075 342.5 495.973 294.9C495.973 291.7 496.38 290 500.245 290.2C503.398 290.3 504.619 291.3 504.111 294.3C503.093 299.8 505.636 301.1 510.824 300.7C515.91 300.3 520.996 300.4 526.081 300.7C529.438 300.9 530.964 299.5 530.354 296.4C529.336 291 532.083 290.3 536.863 290.3C576.432 290.5 616.101 290.5 655.669 290.3C660.348 290.3 662.79 291.1 661.874 296.2C661.264 299.5 662.586 301 666.248 300.8C671.842 300.5 677.437 300.5 683.031 300.8C687.1 301 688.422 299.6 688.219 295.7C688.117 293.9 686.693 291 690.152 290.5C693.203 290.1 695.441 290.1 695.441 294.6C695.237 340.4 695.339 386.1 695.441 431.9C695.441 435.3 694.322 436.1 691.067 436.1C687.507 436 683.743 435.4 680.082 436.6Z" fill="white"/>
<path d="M526.896 383.6C528.421 381.9 527.913 379.8 527.913 377.9C527.913 358.8 528.014 339.6 527.811 320.5C527.811 316.5 528.726 315 533.202 315C578.365 315.1 623.629 315.1 668.791 315C673.063 315 674.182 316.3 674.182 320.4C674.08 359.2 674.08 397.9 674.08 436.7C673.063 437 672.046 437.3 671.029 437.7C672.046 436 671.741 434.1 671.741 432.3C671.741 395.8 671.639 359.4 671.843 322.9C671.843 318.8 670.825 317.6 666.553 317.6C623.018 317.8 579.483 317.8 535.948 317.6C531.371 317.6 530.354 318.9 530.456 323.2C530.761 343 530.659 362.8 530.761 382.6C529.438 383 528.116 383.3 526.896 383.6Z" fill="#648BB4"/>
<path d="M521.301 426.1C521.301 436.4 521.301 446.3 521.301 456.2C510.62 454.7 503.297 448.7 503.195 441.3C503.093 433.8 509.501 428.3 521.301 426.1Z" fill="#FB9892"/>
<path d="M546.018 380.6C546.73 378.9 548.154 378.8 549.782 378.8C583.959 378.8 618.034 378.8 652.212 378.8C653.025 378.8 653.941 378.8 654.653 379.8C653.331 381.9 651.093 381 649.363 381C628.918 381.1 608.473 381 588.028 381.1C586.197 381.1 584.264 380.5 582.637 381.7C570.532 377.9 558.224 380.7 546.018 380.6Z" fill="#5881AE"/>
<path d="M605.116 398.9C607.15 400 609.388 399.6 611.626 399.6C624.341 399.6 636.954 399.6 649.668 399.6C651.398 399.6 653.229 399.2 654.754 400.3C654.754 400.8 654.754 401.3 654.653 401.8C638.479 401.8 622.306 401.8 606.133 401.8C605.726 400.8 605.421 399.9 605.116 398.9Z" fill="#5881AE"/>
<path d="M1149.81 552.3C1135.17 552.4 1120.52 552.4 1105.87 552.5C1102.82 552.5 1102.21 551.1 1102.31 548.6C1102.41 539.3 1102.41 530.1 1102.51 520.8C1118.79 530.4 1134.15 541.6 1149.81 552.3Z" fill="#FDFDFE"/>
<path d="M1136.49 482.7C1147.37 482.7 1158.25 482.7 1169.14 482.7C1166.6 486.1 1166.7 489.6 1168.12 493.5C1169.34 496.7 1170.97 499.8 1170.97 504.5C1158.97 496.9 1147.78 489.8 1136.49 482.7Z" fill="white"/>
<path d="M1107.19 486.5C1106.89 484.1 1108.11 483.3 1110.34 483.7C1118.18 488.5 1126.11 493.3 1133.94 498.1C1135.27 498.9 1136.49 499.7 1137.81 500.5C1139.03 501.2 1140.35 502 1139.44 503.6C1138.32 505.6 1136.89 504.4 1135.57 503.6C1126.21 497.9 1116.65 492.2 1107.19 486.5Z" fill="#060404"/>
<path d="M1159.68 539.6C1158.86 539.6 1158.25 539.4 1158.05 538.7C1157.75 537.9 1157.85 537 1158.46 536.4C1163.65 531.9 1168.83 527.5 1174.12 523.1C1174.94 522.4 1175.95 522.4 1176.87 523.2C1177.58 523.9 1177.58 524.9 1176.97 525.4C1171.58 530.1 1166.09 534.7 1160.59 539.4C1160.29 539.6 1159.88 539.6 1159.68 539.6Z" fill="#080505"/>
<path d="M907.928 534.3C907.216 532.4 906.403 530.5 905.691 528.6C904.775 528.1 904.165 527.5 904.572 526.4C902.944 524.4 904.266 521.9 903.453 519.8C902.13 518.2 902.436 516.3 902.334 514.5C901.927 508.3 899.791 505.6 893.586 503.9C892.162 503.5 890.535 503.4 889.721 501.8C888.195 490.4 888.704 478.9 889.314 467.5C889.721 460 889.924 452.6 889.823 445.1C887.585 436.5 882.092 430.9 873.548 428.3C869.886 427.2 869.479 425.7 871.819 422.7C876.294 416.8 875.989 412.6 871.412 408.1C867.546 404.4 863.071 404 858.595 406.9C854.323 409.7 852.797 414.3 854.628 419.1C857.375 426.3 857.476 426.4 849.644 427.5C843.948 428.3 838.862 430.1 834.997 434.6C833.878 435.9 832.454 436.2 830.928 436C821.469 436 812.111 435.9 802.651 436.1C798.887 436.2 797.463 434.7 797.565 431.2C797.667 425.8 797.26 420.3 797.768 414.9C798.379 412.5 800.413 411.6 802.447 410.8C814.755 406.5 821.265 397.9 822.893 385.4C823.198 382.9 823.401 380.3 826.656 379.6C857.171 379.4 887.687 379.6 913.523 379.5C889.111 379.5 860.121 379.5 831.132 379.5C828.996 379.5 826.758 379.8 824.622 379.1C821.57 375.7 823.198 371.6 822.893 367.8C823.503 365.3 822.994 362.6 824.317 360.2C824.825 359.8 825.334 359.6 825.944 359.4C830.013 358.8 834.081 359.1 838.15 359.1C864.393 359.1 890.636 359.1 916.88 359.1C888.5 359.1 860.121 359.1 831.742 359.1C829.402 359.1 826.961 359.4 824.723 358.2C820.96 353.8 821.977 348.6 822.079 343.6C822.892 339.6 825.029 336.2 826.961 332.8C829.199 328.9 829.097 325.3 826.758 321.6C825.944 320.2 823.91 318.8 826.249 316.9C828.284 315.8 830.521 316.1 832.759 316.1C866.122 316.1 899.486 316.1 932.849 316.1C941.088 316.1 941.8 316.8 941.8 324.9C941.8 392.3 941.8 459.7 941.8 527.1C941.8 535.3 941.292 535.8 932.849 535.8C926.543 535.8 920.338 535.8 914.031 535.8C911.895 536 909.556 536.3 907.928 534.3Z" fill="white"/>
<path d="M796.954 316.6C787.494 316.6 778.035 316.6 768.473 316.8C766.134 316.8 765.117 316.1 765.218 313.7C765.32 307 765.32 300.4 765.218 293.7C765.117 290.4 767.151 290.5 769.49 290.4C772.033 290.3 773.051 291.2 773.152 293.8C773.458 300.7 773.559 300.7 780.374 300.7C785.155 300.7 789.834 300.5 794.615 300.8C798.073 301 799.802 300 799.192 296.4C798.378 291.6 800.209 290.3 805.193 290.3C845.168 290.5 885.143 290.5 925.118 290.3C929.492 290.3 931.933 291 931.12 295.9C930.509 299.5 931.933 301 935.798 300.7C940.681 300.4 945.665 300.3 950.547 300.7C955.532 301.1 957.871 299.8 956.956 294.5C956.549 292.3 956.651 290.2 960.109 290.2C963.059 290.2 964.381 291 964.279 294.1C964.076 302.4 964.178 310.7 964.178 319.1C964.178 394.8 964.178 470.6 964.279 546.3C964.279 551.1 963.059 552.4 958.075 552.4C939.664 552.1 921.151 552.2 902.74 552.1C906.199 547.4 908.436 542.3 908.131 536.4C909.759 535 911.691 535.5 913.522 535.4C921.151 535.4 928.78 535.2 936.409 535.5C940.477 535.6 942.003 534.1 941.495 530.3C941.393 529.6 941.495 529 941.495 528.3C941.495 460.1 941.495 391.8 941.495 323.6C941.495 322.4 941.495 321.3 941.495 320.1C941.596 317.5 940.579 316 937.629 316.1C936.612 316.2 935.595 316.1 934.578 316.1C892.06 316.1 849.542 316.2 807.126 316C803.667 316.2 800.311 316.4 796.954 316.6Z" fill="white"/>
<path d="M890.535 502.4C899.282 502.7 905.284 506.3 903.555 519.9C903.249 521 902.843 522 902.334 523.6C900.198 518.7 897.757 518.6 893.892 521.8C886.975 527.3 879.448 532.2 872.124 537.2C870.7 538.1 868.971 540.3 867.343 538.3C865.614 536.1 868.361 535.2 869.683 534.2C877.515 528.7 885.246 523.1 893.281 517.8C896.739 515.5 895.316 514.5 892.671 513.4C889.823 512.2 886.873 511.2 883.822 512C876.295 513.9 868.564 516.6 862.665 521.1C857.477 525.1 852.086 529 846.899 533C842.83 536.2 838.354 539 834.082 541.9C832.76 542.8 831.336 543.8 830.217 542C829.2 540.4 830.827 539.6 831.845 538.9C838.151 534.4 844.458 530 850.764 525.5C850.967 523.2 849.442 524.5 848.628 524.5C844.152 524.8 839.982 526.4 835.608 527.6C836.015 522.5 836.32 517.3 838.354 512.7C842.016 504.4 848.933 500.8 857.986 500.7C858.901 499.9 860.02 499.3 861.241 499.5C869.886 500.7 878.736 499.6 887.28 501.1C888.501 501.2 889.619 501.6 890.535 502.4Z" fill="black"/>
<path d="M796.955 316.6C798.175 314.5 800.21 315.2 801.939 315.2C847.102 315.2 892.366 315.2 937.528 315.1C941.394 315.1 942.818 316 942.818 320.1C942.716 390.7 942.716 461.2 942.818 531.8C942.818 535.9 941.394 536.8 937.528 536.7C927.763 536.5 917.897 536.6 908.03 536.6C908.03 535.8 907.929 535.1 907.929 534.3C916.88 534.3 925.933 534.1 934.884 534.4C939.258 534.6 940.58 533.4 940.58 529C940.376 477.2 940.478 425.5 940.478 373.7C940.478 356.6 940.376 339.4 940.58 322.3C940.58 318.5 939.563 317.6 935.799 317.6C900.605 317.7 865.411 317.7 830.115 317.7C828.487 317.7 826.656 317 825.436 318.6C816.078 317.7 806.516 319.5 797.26 317C797.158 316.9 797.056 316.7 796.955 316.6Z" fill="#6189B3"/>
<path d="M862.257 655.8C857.782 657.4 854.425 654.8 851.068 652.8C838.862 645.8 826.656 638.5 814.552 631.2C812.111 629.8 810.077 629.6 807.432 630.5C796.447 634.2 785.359 637.7 774.171 641.2C772.34 641.8 770.509 643.1 767.661 642C770.916 638.7 774.984 637.1 778.646 635C789.937 628.4 801.329 621.8 812.721 615.3C813.738 614.7 814.552 613.8 815.875 614.4C830.318 629.3 846.186 642.6 862.257 655.8Z" fill="black"/>
<path d="M904.572 526.4C904.979 527.1 905.284 527.9 905.691 528.6C896.435 535.2 887.076 541.9 877.82 548.5C876.803 549.2 875.684 549.8 874.667 548.6C873.751 547.5 874.158 546.4 875.277 545.6C884.533 539.2 893.79 532.8 903.046 526.5C903.453 526.3 904.063 526.4 904.572 526.4Z" fill="#060404"/>
<path d="M848.729 524.5C849.949 523.6 851.373 523 852.593 524.2C853 524.6 851.678 525.3 850.966 525.5C850.153 525.1 849.441 524.8 848.729 524.5Z" fill="#C27671"/>
<path d="M740.298 435.9C727.38 435.9 714.564 435.9 701.747 436.1C698.187 436.2 697.577 434.7 697.577 431.7C697.679 418.1 697.679 404.4 697.679 390.8C697.679 358.5 697.577 326.2 697.78 293.9C697.78 289.6 696.967 287.2 691.983 288.1C689.236 288.6 687.812 287.5 688.219 284.5C688.321 283.4 688.117 282.1 688.219 281C689.033 276 686.693 274.3 681.913 275.1C677.437 275.8 675.911 274.3 676.013 269.6C676.318 244.1 676.216 218.7 676.013 193.2C676.013 189.5 676.725 188.1 680.895 188.1C713.954 188.3 746.91 188.3 779.968 188.1C783.935 188.1 785.054 189.1 785.054 193.1C784.851 218.9 784.851 244.7 785.054 270.5C785.054 274.3 784.037 275.3 780.274 275.2C773.052 275 772.746 275.2 773.153 282.6C773.357 286.9 772.136 288.9 767.559 288.1C763.287 287.3 762.473 289.5 762.575 293.2C762.778 299.8 762.575 306.5 762.676 313.2C762.676 315.1 762.676 316.8 760.54 317.7C759.015 319.8 756.472 319.9 754.336 320.8C743.248 325.6 736.942 333.7 736.433 345.8C736.535 349 736.332 352.1 736.535 355.3C736.942 361.5 736.026 366.5 730.33 370.9C724.024 375.7 725.244 384.7 732.975 388.1C741.214 391.8 742.028 397.5 741.723 404.9C741.316 413.2 741.723 421.5 741.621 429.8C741.621 431.8 741.926 434.1 740.298 435.9Z" fill="white"/>
<path d="M595.86 188.1C620.068 188.1 644.277 188.2 668.486 188C673.165 188 674.08 189.3 673.979 193.6C673.775 218.9 673.775 244.2 673.979 269.5C673.979 273.7 673.165 275.4 668.486 275.1C661.874 274.7 661.976 275 661.874 281.5C661.772 288.8 662.79 288 655.466 288C615.796 288 576.228 287.9 536.558 288.2C531.167 288.2 529.642 286.6 530.354 281.8C530.455 281 530.252 280.1 530.354 279.3C530.761 276 529.235 275 525.98 275C518.453 275 518.453 274.9 518.453 267.3C518.453 242.7 518.555 218 518.351 193.4C518.351 189.4 519.267 188 523.539 188.1C547.747 188.2 571.753 188.1 595.86 188.1Z" fill="white"/>
<path d="M865.309 188.1C889.314 188.1 913.421 188.2 937.427 188C941.089 188 942.818 188.5 942.716 192.8C942.513 218.8 942.614 244.7 942.614 270.7C942.614 273.7 942.207 275.2 938.545 275.1C931.018 275 930.713 275.2 931.12 282.5C931.324 286.8 930.205 288.1 925.627 288.1C885.347 287.9 845.067 287.9 804.787 288.1C800.413 288.1 798.48 287.2 799.192 282.7C799.396 281.6 799.091 280.4 799.294 279.2C799.701 275.9 798.277 274.9 794.92 275C787.596 275 787.596 274.9 787.596 267.9C787.596 242.9 787.698 218 787.495 193C787.495 189 788.715 188 792.682 188C816.891 188.2 841.1 188.1 865.309 188.1Z" fill="white"/>
<path d="M740.299 435.9C740.299 423.1 740.298 410.3 740.4 397.5C740.4 394.6 739.79 392.8 736.738 392C735.111 391.6 733.585 390.7 732.161 389.9C722.803 384.3 722.396 373.4 731.653 367.6C734.196 366 735.009 364.4 735.009 361.6C734.908 356 735.111 350.3 735.213 344.7C737.247 343 739.688 343.3 742.028 343.3C761.761 343.9 781.494 342 801.328 342.2C806.516 342.3 811.703 340.9 816.993 341.3C819.129 341.5 821.468 341.1 823.198 342.8C823.604 347.9 824.113 353 824.52 358.1C825.334 359.1 825.232 360 824.52 361L824.215 361.1C820.248 364.1 820.248 364.1 824.316 366.6C824.52 370.7 824.622 374.8 824.825 378.9C825.334 379.6 825.537 380.3 825.334 381.2C824.011 383.3 824.622 385.7 824.215 388C821.875 400.4 814.653 408.7 802.346 412.7C801.227 413.1 800.21 413.5 799.091 413.9C798.48 414.4 797.768 414.9 796.955 415.2C793.801 416.2 790.445 417.1 787.19 417.1C783.121 417.1 782.104 419.1 782.206 422.7C782.307 426.8 782.714 430.9 781.697 435C781.392 435.8 780.68 436.4 779.866 436.6C766.948 436.6 754.03 436.6 741.112 436.6C740.909 436.3 740.604 436.1 740.299 435.9Z" fill="#FD9993"/>
<path d="M823.197 342.7C793.903 343.7 764.608 345 735.212 344.6C735.924 330.9 746.096 320.1 760.54 317.6C770.915 317.6 781.29 317.6 791.767 317.6C793.598 317.6 795.428 318 797.158 317.1C803.668 317.1 810.178 317.2 816.687 317C819.739 316.9 822.587 317.4 825.333 318.7C830.724 323.2 831.64 326.8 828.588 332.9C826.961 336.2 825.638 339.8 823.197 342.7Z" fill="black"/>
<path d="M786.478 277.6C797.057 277.6 797.057 277.6 797.057 288C797.057 298.6 797.057 298.6 786.275 298.6C775.696 298.6 775.696 298.6 775.696 288.2C775.696 277.6 775.696 277.6 786.478 277.6Z" fill="#FDFEFE"/>
<path d="M954.617 287.9C954.617 298.6 954.617 298.6 943.936 298.6C933.255 298.6 933.255 298.6 933.255 287.8C933.255 277.6 933.255 277.6 943.427 277.6C943.733 277.6 944.139 277.6 944.445 277.6C954.617 277.6 954.617 277.6 954.617 287.9Z" fill="white"/>
<path d="M517.436 277.6C527.913 277.6 527.913 277.6 527.913 288.1C527.913 298.6 527.913 298.6 516.927 298.6C506.45 298.6 506.45 298.6 506.45 288.1C506.45 277.6 506.45 277.6 517.436 277.6Z" fill="#FDFDFE"/>
<path d="M685.473 288.4C685.473 298.6 685.473 298.6 675.199 298.6C664.112 298.6 664.112 298.6 664.112 287.5C664.112 277.6 664.112 277.6 674.182 277.6C674.386 277.6 674.487 277.6 674.691 277.6C685.473 277.6 685.473 277.6 685.473 288.4Z" fill="#FDFDFD"/>
<path d="M455.49 186.2C455.49 183.7 455.49 181.2 455.49 178.7C455.49 175.7 456.71 173.9 459.965 173.9C462.915 173.8 464.339 175.6 464.339 178.3C464.441 183.4 464.441 188.6 464.339 193.7C464.238 196.5 463.017 198.4 459.66 198.2C456.609 198 455.591 196.3 455.591 193.6C455.49 191.2 455.49 188.7 455.49 186.2Z" fill="#FCFCFD"/>
<path d="M1030.09 186.3C1030.09 188.8 1030.09 191.3 1030.09 193.8C1030.09 196.5 1029.07 198.3 1026.02 198.3C1023.07 198.3 1021.65 196.9 1021.65 194.1C1021.65 188.8 1021.65 183.4 1021.65 178.1C1021.65 175.5 1023.07 174.1 1025.72 174C1028.67 174 1030.09 175.4 1030.09 178.3C1030.09 180.9 1030.09 183.6 1030.09 186.3Z" fill="white"/>
<path d="M890.535 502.4C879.753 501.8 868.869 501.2 858.087 500.6C858.595 497.1 857.476 495.7 853.509 495.4C849.847 495.1 846.186 493.9 842.829 492.5C834.183 489 828.792 482.8 828.283 473.3C827.774 462.6 828.995 452.1 831.538 441.8C832.657 440.8 833.877 440.6 835.301 440.7C853.001 441.4 870.598 442.9 888.297 443.3C889.111 443.3 889.925 443.6 890.738 443.8C892.569 450.2 891.755 456.7 891.247 463.1C890.331 476.1 890.637 489.2 890.535 502.4Z" fill="#FD9993"/>
<path d="M890.738 443.8C886.262 446.1 881.583 444.6 877.006 444.4C861.85 443.7 846.694 442.7 831.539 441.8C831.844 440.2 832.149 438.6 832.352 437C832.149 436.8 832.047 436.6 832.251 436.4C832.352 436.3 832.454 436.2 832.556 436.2C838.048 427.1 847.407 426.3 857.375 425.7C854.12 421.9 851.679 418.2 852.696 413.3C853.306 410.1 854.933 407.8 857.476 405.9C862.461 402.3 869.276 403.1 873.446 407.8C878.125 413.1 877.311 419.1 870.598 426.1C880.77 428.4 887.89 433.8 890.738 443.8Z" fill="#903600"/>
<path d="M695.848 541.4C698.594 541.9 697.984 544.1 698.187 545.8C699.306 560.2 700.425 574.7 701.544 589.1C701.951 594.7 701.849 594.7 706.731 592.3C710.088 590.7 713.343 589 716.7 587.4C717.819 586.9 718.938 586.2 719.751 587.7C720.565 589.2 719.751 590.1 718.327 590.8C712.835 593.4 707.444 596.1 701.951 598.8C698.391 600.5 698.391 598 698.187 595.7C697.17 583.9 696.255 572.2 695.339 560.4C694.932 555.1 694.525 549.8 694.22 544.5C694.22 543.1 694.017 541.7 695.848 541.4Z" fill="#FBFBFC"/>
<path d="M634.309 495.7C634.41 499 634.512 502.3 634.614 505.6C635.122 506.7 635.021 507.9 634.919 509C634.715 510.6 635.834 512.8 634.105 513.5C632.071 514.3 630.342 512.5 629.02 511.1C624.646 506.6 624.138 499.4 628.104 494.2C629.223 492.8 630.342 490.9 632.478 491.2C635.021 491.6 633.19 494.4 634.309 495.7Z" fill="#FBFBFC"/>
<path d="M832.555 436.2C832.657 436.5 832.555 436.8 832.352 437C816.688 437 801.024 437 785.359 436.9C783.529 436.9 781.698 436.7 779.867 436.5C780.172 436.3 780.477 436.1 780.782 435.9C783.02 433.8 785.868 434.3 788.513 434.3C795.429 434.2 795.328 434.2 795.531 427.2C795.734 422.8 794.31 418.2 796.853 414C797.565 413.9 798.277 413.8 799.091 413.8C799.091 419.9 799.294 426.1 799.091 432.2C798.989 435.3 800.21 436.1 803.16 436.1C813.026 436 822.791 436.1 832.555 436.2Z" fill="#5781AE"/>
<path d="M634.309 495.7C633.088 494.7 634.512 492.2 632.681 492C631.054 491.8 629.833 493.6 628.918 494.9C624.137 501.2 626.476 509.4 634.614 513C634.614 510.4 634.614 508 634.614 505.6C636.241 509.2 635.224 513 635.326 516.7C630.647 514.2 626.273 511.5 624.646 506.1C622.611 499.2 625.764 492.8 633.495 488.6C634.004 491 635.122 493.3 634.309 495.7Z" fill="#6187B2"/>
<path d="M1378.88 435.9C1372.57 433.9 1369.52 428.6 1366.06 423.6C1364.03 420.7 1361.99 417.9 1360.06 415C1358.13 412.2 1359.15 411 1362.3 411.1C1365.96 411.2 1369.72 411.6 1373.49 411.8C1370.74 399.5 1374.5 391.2 1385.8 385.5C1397.59 379.5 1410 378 1423.23 380.2C1431.36 381.6 1439.71 381.6 1447.94 382.6C1465.13 384.6 1474.39 393 1478.26 409.9C1480.9 421.3 1480.9 433 1482.02 444.6C1483.14 456.5 1487.41 467.2 1493.72 477.1C1495.45 479.8 1496.57 482.4 1494.73 485.4C1493.01 488.3 1490.36 488.7 1487.31 488.6C1476.12 488.3 1465.03 488.1 1453.84 487.8C1450.89 488.7 1450.49 486.3 1450.69 484.7C1452.12 472.6 1447.54 461.5 1444.89 450.1C1443.16 442.8 1442.15 435.4 1442.25 427.2C1440.52 429.3 1439.3 431 1437.87 432.6C1429.43 442.1 1414.89 441.2 1407.87 430.7C1404 425 1404 425 1399.73 430.2C1396.27 434.4 1392.2 437.3 1386.61 437.9C1383.66 438.2 1381.01 438 1378.88 435.9Z" fill="black"/>
<path d="M1378.88 435.9C1391.8 439.3 1398.21 431.4 1403.7 421C1408.17 428.9 1411.63 437 1421.91 437.8C1431.98 438.6 1436.96 431.8 1442.55 424.2C1443.57 432.5 1444.49 439.6 1445.5 446.8C1446.42 453.1 1448.15 459 1450.69 464.9C1453.13 470.6 1451.1 477 1451.61 483.1C1451.71 484.8 1450.49 487.3 1453.74 487.7C1453.84 491.3 1453.95 494.9 1454.05 498.6C1453.95 498.9 1453.84 499.1 1453.54 499.3C1438.59 499.4 1423.63 499.5 1408.68 499.6C1408.58 499.4 1408.48 499.2 1408.48 499C1409.9 496.6 1412.34 497.3 1414.38 497.3C1417.73 497.3 1418.96 495.8 1418.75 492.7C1418.75 492 1418.75 492.9 1418.75 492.2C1419.16 480.3 1419.16 480.4 1407.67 477.1C1404.72 476.3 1401.77 475.6 1399.02 474.3C1397.8 473.9 1396.68 473.4 1395.56 472.8C1392.2 470.9 1389.25 468.4 1386.3 465.9C1385.59 465.1 1385.59 464.2 1385.49 463.2C1380.71 456.6 1379.08 449.2 1379.39 441.2C1379.49 439.5 1379.08 437.7 1378.88 435.9Z" fill="#FD9993"/>
<path d="M1416.11 337.9C1400.04 337.9 1383.97 337.8 1367.89 337.9C1363.93 337.9 1362.4 337.3 1364.23 332.9C1374 310.1 1376.95 286.5 1372.37 262.1C1371.56 257.8 1372.67 256.6 1377.05 256.8C1383.25 257.1 1389.56 256.7 1395.87 256.9C1398.92 257 1400.65 256.4 1401.87 253.2C1404.11 247.6 1408.68 244.6 1414.89 244.6C1421.3 244.6 1426.08 247.6 1428.31 253.4C1429.53 256.5 1431.26 256.8 1434.01 256.8C1441.13 256.7 1448.25 256.9 1455.37 256.7C1458.22 256.6 1459.54 257.5 1460.05 260.4C1464.53 285 1463.51 309.4 1457.41 333.6C1456.29 337.9 1454.76 339.8 1449.67 339.6C1438.49 339.1 1427.4 339.4 1416.21 339.4C1416.11 339.1 1416.11 338.5 1416.11 337.9Z" fill="#5A83AF"/>
<path d="M1350.3 291.2C1350.6 306.3 1348.36 320.9 1344.7 335.3C1343.89 338.6 1342.46 339.9 1338.8 339.8C1310.73 339 1282.65 338.4 1254.58 337.9C1250.92 337.8 1250.31 337.1 1251.83 333.7C1262.01 310.3 1264.65 286 1260.07 261C1259.46 257.5 1260.79 256.9 1263.74 257C1270.55 257.1 1277.26 256.9 1284.08 257.1C1286.93 257.2 1288.45 256.6 1289.67 253.6C1291.91 247.8 1296.69 244.8 1303.2 244.9C1309.41 245 1313.98 248 1316.22 253.6C1317.34 256.6 1318.97 257.2 1321.82 257.1C1328.73 256.9 1335.75 257.3 1342.67 257C1346.53 256.8 1347.65 258.5 1348.16 261.7C1349.48 271.5 1350.5 281.4 1350.3 291.2Z" fill="#5A83AF"/>
<path d="M1185.01 337.9C1170.97 337.9 1156.93 337.8 1142.89 337.9C1139.23 337.9 1138.01 337.3 1139.74 333.4C1149.71 310.3 1152.46 286.3 1147.98 261.6C1147.27 257.7 1148.49 256.6 1152.35 256.8C1159.07 257.1 1165.88 256.8 1172.7 256.9C1175.04 256.9 1176.26 256.4 1177.17 254C1179.51 248 1183.99 244.6 1190.7 244.7C1197.31 244.7 1202.09 248 1204.23 254.1C1205.15 256.6 1206.47 256.9 1208.71 256.9C1215.83 256.8 1222.95 257.1 1230.07 256.8C1233.93 256.6 1235.25 258 1235.86 261.7C1240.14 286.7 1239.02 311.3 1232.41 335.8C1231.59 338.8 1230.27 339.7 1227.12 339.7C1213.08 339.5 1199.04 339.6 1185.01 339.6C1185.01 339.1 1185.01 338.5 1185.01 337.9Z" fill="#5A83AF"/>
<path d="M1385.49 463.3C1385.9 464 1386.41 464.7 1386.81 465.3C1386.91 467.7 1385.39 469.3 1384.17 471.1C1377.25 481.1 1370.95 491.5 1364.94 502.1C1363.93 503.9 1362.6 505.4 1361.18 506.7C1359.65 507.4 1359.86 510.6 1357.11 509.6C1365.15 493.3 1374.51 477.8 1385.49 463.3Z" fill="#6088B2"/>
<path d="M1478.05 584.1C1478.05 593.5 1475.21 596.4 1465.85 596.4C1455.78 596.4 1453.54 594.1 1453.54 583.5C1453.54 574.1 1455.88 571.8 1465.44 571.8C1475.31 571.7 1478.05 574.4 1478.05 584.1Z" fill="#6DB6DE"/>
<path d="M600.844 357.9C617.322 357.9 633.699 357.9 650.177 357.9C651.702 357.9 654.449 357 654.449 359C654.551 361.2 651.906 360.4 650.38 360.4C617.322 360.5 584.366 360.4 551.307 360.4C551.002 360.4 550.595 360.4 550.29 360.4C549.07 360.2 547.035 360.9 547.137 359C547.239 357.3 549.273 357.9 550.494 357.8C551.511 357.7 552.528 357.8 553.545 357.8C569.413 357.9 585.179 357.9 600.844 357.9Z" fill="#5881AE"/>
<path d="M597.894 426C596.165 426.9 594.436 427.3 593.012 425.5C592.3 424.5 592.198 423.4 592.707 422.3C593.826 420.1 595.656 420.7 597.487 421.1C597.894 421.7 598.301 422.3 598.809 423C599.928 424.2 599.114 425 598.097 425.7L597.894 426Z" fill="#090808"/>
<path d="M598.098 425.5C598.302 424.6 598.505 423.7 598.81 422.8C601.455 423.1 604.099 422.4 608.167 423.8C604.201 426.1 600.946 424.9 598.098 425.5Z" fill="#5881AE"/>
<path d="M561.276 421.6C563.615 421.8 564.632 422.9 564.531 424.8C564.429 426.5 563.412 427.6 561.682 427.7C559.648 427.8 558.427 426.6 558.427 424.7C558.427 422.9 559.546 421.8 561.276 421.6Z" fill="#130C0B"/>
<path d="M1361.18 506.7C1368.71 492.3 1377.15 478.4 1386.81 465.3C1389.97 467.5 1393.02 469.6 1396.17 471.8C1397.9 477.2 1397.8 482.9 1398.2 488.5C1398.31 489.7 1397.8 490.8 1396.68 491.5C1395.05 499.4 1395.05 499.7 1386.1 499.4C1376.84 499.1 1368.91 502.6 1361.18 506.7Z" fill="#FDFEFE"/>
<path d="M1398.71 472.9C1404.51 475.1 1410.51 476.8 1416.72 477.5C1419.77 477.8 1420.38 479.1 1420.18 481.6C1420.08 482.9 1420.18 484.2 1420.18 485.6C1420.08 489.6 1421.4 494.3 1419.67 497.3C1417.63 500.9 1412.14 497.6 1408.48 499C1407.36 499.1 1406.14 499.2 1405.02 499.4C1400.24 500.3 1398.21 498.4 1398.71 493.7C1398 486.8 1395.97 479.9 1398.71 472.9Z" fill="#FDFDFD"/>
<path d="M1398.71 472.9C1398.71 479.8 1398.61 486.8 1398.61 493.7C1397.09 495 1398.61 497.2 1396.98 498.8C1396.78 496.2 1396.68 493.8 1396.48 491.4C1396.27 484.8 1396.17 478.3 1395.97 471.7C1396.98 472.2 1397.9 472.6 1398.71 472.9Z" fill="#5882AF"/>
<path d="M1273.3 384.8C1266.58 384.7 1261.29 379.2 1261.5 372.5C1261.7 366.1 1267.19 360.9 1273.7 361C1280.31 361 1285.91 366.7 1285.81 373.2C1285.71 379.6 1280.11 384.9 1273.3 384.8Z" fill="white"/>
<path d="M824.52 360.9C824.52 359.9 824.52 359 824.52 358C857.68 358 890.738 358 924.814 358C922.373 361.4 920.135 360.5 918.304 360.5C888.908 360.6 859.511 360.5 830.115 360.6C828.284 360.6 826.453 360.8 824.52 360.9Z" fill="#5881AE"/>
<path d="M825.436 381C825.232 380.2 825.131 379.5 824.927 378.7C857.883 378.7 890.738 378.7 923.694 378.7C923.694 379.5 923.694 380.2 923.694 381C890.941 381 858.188 381 825.436 381Z" fill="#5882AE"/>
<path d="M824.419 366.5C821.876 367.3 819.333 367.3 819.231 364C819.129 360.6 821.774 360.7 824.317 361C825.334 362.8 825.843 364.6 824.419 366.5Z" fill="#110E0E"/>
<path d="M796.955 414C796.955 420.1 796.853 426.2 797.057 432.3C797.158 435 796.345 436.2 793.395 436.1C789.224 435.9 785.054 435.9 780.782 435.9C780.782 430.4 780.782 425 780.579 419.5C780.477 417.1 780.986 415.7 783.834 415.8C788.411 415.9 792.581 414.6 796.955 414Z" fill="#FDFDFD"/>
<path d="M788.512 359.6C790.444 359.8 791.36 361 791.156 362.9C791.055 364.6 790.038 365.7 788.207 365.6C786.275 365.5 785.054 364.3 785.054 362.4C785.054 360.6 786.376 359.6 788.512 359.6Z" fill="#0E0808"/>
<path d="M864.698 457C864.393 458.3 863.782 459.2 862.359 459.1C861.138 459 860.122 458.4 860.122 457C860.122 455.5 861.037 454.6 862.664 454.7C863.986 454.9 864.596 455.9 864.698 457Z" fill="#1D1111"/>
<path d="M839.981 456.2C839.778 457.5 839.066 458.4 837.744 458.4C836.32 458.5 835.608 457.4 835.608 456.2C835.608 454.9 836.422 454 837.744 454C839.066 454 839.778 454.9 839.981 456.2Z" fill="#150C0C"/>
<path d="M1419.57 414C1408.38 414.3 1397.29 412.8 1386.1 412.6C1383.46 412.5 1382.23 412 1382.44 408.9C1383.76 389.8 1402.68 376.6 1421.5 381.9C1434.11 385.4 1443.78 399.6 1442.05 412.1C1441.74 414.6 1440.01 413.9 1438.69 413.9C1432.38 414.1 1425.97 414 1419.57 414Z" fill="#FD9993"/>
<path d="M1457.3 441.2C1457.3 437.1 1457.4 432.9 1457.3 428.8C1457.2 425.9 1458.12 425.3 1460.86 426.4C1462.49 427.1 1464.52 427.3 1466.05 428.1C1471.24 430.7 1475.41 434.3 1475.41 440.6C1475.41 447 1471.44 451 1465.95 453.5C1457.4 457.5 1457.4 457.4 1457.4 448.2C1457.3 445.8 1457.3 443.5 1457.3 441.2Z" fill="#FB9892"/>
<path d="M1406.44 418C1418.65 418 1430.25 418 1442.45 418C1438.79 423 1435.84 427.6 1431.67 431.1C1426.08 435.9 1417.43 434.9 1412.85 428.9C1410.41 425.7 1408.78 421.9 1406.44 418Z" fill="#FB9893"/>
<path d="M1379.9 416C1386.1 416.3 1392.31 416.6 1398.51 417C1399.53 417.1 1401.66 417.1 1400.65 418.7C1397.39 424 1395.26 430.4 1388.24 432.4C1385.39 433.2 1382.34 433.6 1379.49 431.9C1378.07 430 1379.18 428.2 1379.79 426.4C1380.1 426 1380.4 425.7 1380.91 425.5C1382.34 425.2 1384.27 425.6 1384.37 423.6C1384.47 421.7 1382.24 421.9 1381.22 421C1380.61 419.3 1379.29 417.9 1379.9 416Z" fill="#FB9892"/>
<path d="M1380.61 425.7C1380.2 427.7 1379.9 429.7 1379.49 431.8C1372.27 429.2 1370.34 422.1 1366.06 416.9C1366.67 413.8 1368.91 415.7 1370.44 415.6C1373.59 415.7 1376.64 415.9 1379.8 416C1381.73 417 1381.32 418.8 1381.32 420.5C1381.42 422.3 1381.42 424 1380.61 425.7Z" fill="#FCFBFB"/>
<path d="M1370.54 415.6C1369.22 416.4 1367.18 415.1 1366.16 416.9C1364.74 415.8 1364.84 415 1366.67 415C1368 414.9 1369.22 415.4 1370.54 415.6Z" fill="#AEAEAE"/>
<path d="M1426.28 335.8C1407.66 335.8 1389.05 335.7 1370.44 335.9C1366.47 335.9 1366.06 334.9 1367.49 331.4C1376.44 309.5 1378.78 286.7 1375.01 263.4C1374.5 259.9 1375.52 259.4 1378.47 259.5C1384.37 259.6 1390.27 259.6 1396.27 259.5C1399.02 259.4 1400.34 260 1401.15 263C1402.99 269.6 1408.38 273.2 1415.09 273.1C1421.6 273.1 1426.69 269.6 1428.62 263.1C1429.53 260 1431.06 259.4 1433.91 259.5C1440.32 259.7 1446.72 259.6 1453.23 259.5C1455.98 259.4 1457.4 259.9 1457.91 263.1C1461.57 286.7 1460.86 310.1 1454.96 333.3C1454.15 336.4 1453.23 337.6 1449.57 337.3C1441.84 336.8 1434.01 337.2 1426.28 337.2C1426.28 336.7 1426.28 336.3 1426.28 335.8Z" fill="white"/>
<path d="M1414.79 270.9C1408.07 270.8 1402.78 265.4 1402.88 258.6C1402.99 252.2 1408.48 247 1414.99 246.9C1421.5 246.9 1427.3 252.6 1427.2 259C1427.09 265.7 1421.5 271 1414.79 270.9Z" fill="white"/>
<path d="M1253.87 335.4C1258.14 324.8 1261.4 314.3 1263.13 303.2C1265.16 290.3 1265.36 277.4 1263.02 264.5C1262.41 261 1262.72 259.1 1267.09 259.5C1270.65 259.8 1274.21 259.6 1277.77 259.6C1283.37 259.5 1288.55 258.6 1290.89 266.4C1292.52 271.9 1298.73 273.8 1304.93 273.1C1310.73 272.4 1314.8 269.1 1316.42 263.9C1317.54 260.1 1319.48 259.5 1322.93 259.6C1329.04 259.8 1335.14 259.8 1341.24 259.6C1344.09 259.5 1345.62 260.4 1346.02 263.3C1349.89 287.1 1348.77 310.7 1342.87 334.1C1342.36 336 1342.06 337.8 1339.01 337.7C1311.14 337 1283.16 336.5 1255.29 335.9C1254.89 335.7 1254.78 335.6 1253.87 335.4Z" fill="white"/>
<path d="M1314.8 259C1314.8 265.8 1309.41 270.9 1302.59 270.9C1295.98 270.8 1290.79 265.7 1290.79 259.2C1290.69 252.4 1295.98 247 1302.69 247C1309.41 246.9 1314.8 252.4 1314.8 259Z" fill="white"/>
<path d="M1141.68 335.5C1145.03 326.9 1147.98 318.5 1149.81 309.7C1152.86 294.6 1153.37 279.3 1150.83 264.1C1150.12 260.1 1151.24 259.2 1155.1 259.5C1160.7 259.8 1166.29 259.7 1171.88 259.5C1174.53 259.4 1175.95 259.9 1176.87 262.8C1179 269.7 1183.99 273.1 1190.7 273.1C1197.62 273.1 1202.5 269.5 1204.64 262.3C1205.35 260 1206.37 259.5 1208.5 259.5C1215.32 259.6 1222.03 259.7 1228.85 259.4C1232.1 259.3 1233.22 260.4 1233.73 263.5C1237.08 283.7 1236.78 303.9 1232.71 324C1231.8 328.4 1232.2 334 1228.95 336.6C1225.9 339 1220.5 337.1 1216.23 337C1192.53 336.7 1168.83 336.2 1145.13 335.8C1144.12 335.8 1143.1 335.6 1141.68 335.5Z" fill="white"/>
<path d="M1202.71 258.9C1202.71 265.6 1197.42 270.9 1190.6 270.9C1183.99 270.9 1178.29 265.3 1178.39 258.8C1178.5 252.6 1183.99 247.1 1190.4 247C1197.01 246.8 1202.71 252.3 1202.71 258.9Z" fill="white"/>
<path d="M1417.02 421.3C1418.96 421.5 1420.18 422.5 1420.07 424.5C1419.97 426.5 1418.55 427.5 1416.72 427.4C1415.19 427.3 1413.97 426.2 1413.97 424.5C1413.97 422.5 1415.09 421.5 1417.02 421.3Z" fill="#0D0807"/>
<path d="M1380.61 425.7C1379.79 423.8 1379.69 422 1381.42 420.5C1383.25 420.2 1385.08 419.9 1386.1 422.1C1386.61 423.3 1386.41 424.3 1385.59 425.3C1384.07 427 1382.34 426.6 1380.61 425.7Z" fill="#120C0B"/>
</svg>
